<svg width="120" height="26" viewBox="0 0 120 26" fill="none" xmlns="http://www.w3.org/2000/svg">
<path d="M31.9253 14.0442L35.7172 13.7984C35.7172 13.7984 35.8577 13.342 35.8577 12.6749C35.8577 9.97136 33.1191 8.00518 29.1516 8.00518C24.9734 8.00518 22.2348 10.0416 22.2348 13.1313C22.2348 19.2054 31.7849 17.4148 31.7849 20.2938C31.7849 21.2418 30.8369 21.8738 28.9058 21.8738C26.413 21.8738 24.0606 20.2938 23.6041 19.8725L21.4624 22.5058C22.0593 22.9973 24.3063 24.9986 29.0111 24.9986C33.3999 24.9986 36.1386 23.1027 36.1386 20.1183C36.0683 13.7633 26.3076 16.4317 26.3076 12.9557C26.3076 11.8322 27.2556 11.0247 29.0111 11.0247C30.8369 11.0247 31.9955 11.9375 31.9955 13.3771C31.9955 13.6228 31.9604 13.9037 31.9253 14.0442Z" fill="#071721"/>
<path d="M46.1552 8.00518C40.9588 8.00518 37.4829 11.5513 37.4829 16.537C37.4829 21.5227 40.9588 24.9986 46.1552 24.9986C51.3866 24.9986 54.8275 21.5227 54.8275 16.537C54.8275 11.5513 51.3866 8.00518 46.1552 8.00518ZM46.1552 21.4876C43.5219 21.4876 41.8366 19.4512 41.8366 16.537C41.8366 13.5877 43.5219 11.5162 46.1552 11.5162C48.7885 11.5162 50.4738 13.5877 50.4738 16.537C50.4738 19.4512 48.7885 21.4876 46.1552 21.4876Z" fill="#071721"/>
<path d="M57.049 24.788H61.2974V0H57.049V24.788Z" fill="#071721"/>
<path d="M69.4751 2.87906C69.4751 1.3342 68.2111 0.175552 66.6662 0.175552C65.0863 0.175552 63.8574 1.3342 63.8574 2.87906C63.8574 4.45902 65.0863 5.58256 66.6662 5.58256C68.2111 5.58256 69.4751 4.45902 69.4751 2.87906ZM64.4894 24.788H68.7729V8.0754L64.4894 8.21584V24.788Z" fill="#071721"/>
<path d="M83.9718 0V10.4278C82.9888 9.02338 81.3035 8.00518 78.8106 8.00518C74.4218 8.00518 71.0863 11.2002 71.0863 16.537C71.0863 21.4876 74.0707 24.9986 78.5999 24.9986C81.5492 24.9986 83.4101 23.4889 84.323 21.4525H84.4283C84.3932 21.9791 84.6038 23.84 84.8496 24.9284L88.2553 24.788V0H83.9718ZM79.6884 21.4174C77.0551 21.4174 75.4049 19.4512 75.4049 16.537C75.4049 13.5175 77.0551 11.5864 79.5479 11.5864C82.4972 11.5864 83.9718 13.974 83.9718 16.0104V16.9935C83.9718 19.1001 82.3919 21.4174 79.6884 21.4174Z" fill="#071721"/>
<path d="M107.135 21.3823C106.959 21.4174 106.748 21.4525 106.538 21.4525C105.835 21.4525 105.555 21.1716 105.555 20.3289V14.5006C105.555 10.4629 102.921 8.00518 98.1814 8.00518C93.7224 8.00518 91.0189 10.1118 91.0189 13.2366C91.0189 14.1144 91.2296 14.7815 91.2296 14.7815L95.0215 14.1495C94.9513 13.974 94.881 13.7633 94.881 13.4824C94.881 12.1131 96.0046 11.3056 98.041 11.3056C100.253 11.3056 101.376 12.5344 101.376 14.3953V15.2028H101.096C94.565 15.3081 90.5273 16.4668 90.5273 20.4343C90.5273 23.1729 92.5286 24.9986 96.145 24.9986C99.6912 24.9986 101.096 23.2782 101.587 22.3302C101.868 24.1209 103.062 24.9635 105.203 24.9635C106.362 24.9635 107.31 24.7177 107.31 24.7177L107.135 21.3823ZM97.2685 21.7334C95.6184 21.7334 94.7055 21.1014 94.7055 19.9778C94.7055 18.3276 96.6014 17.6254 101.096 17.5552H101.376V18.9596C101.376 20.3641 99.8667 21.7334 97.2685 21.7334Z" fill="#071721"/>
<path d="M117.625 8.00518C115.167 8.00518 113.798 9.69048 113.166 11.7971H113.061C113.061 11.0949 112.85 9.23404 112.534 8.0754L109.234 8.21584V24.788H113.517V16.5721C113.517 13.5877 115.238 12.078 117.099 12.078C117.836 12.078 118.398 12.2535 118.889 12.6046L119.978 8.4265C119.275 8.14562 118.503 8.00518 117.625 8.00518Z" fill="#071721"/>
<path fill-rule="evenodd" clip-rule="evenodd" d="M3.64276 16.8295C3.63593 16.9897 3.63246 17.1519 3.63246 17.3162C3.63246 19.4702 4.32557 21.2644 5.52676 22.6159C6.71143 23.9488 8.30285 24.7547 9.96371 25.1214C13.228 25.8421 17.1111 24.9387 19.6085 22.4414L17.281 20.1138C15.6637 21.7311 12.9637 22.4129 10.6734 21.9072C9.55693 21.6607 8.62821 21.1505 7.98706 20.4292C7.52971 19.9146 7.17221 19.2416 7.01353 18.3638C9.6024 19.1686 12.0531 19.0998 14.0688 18.467C15.9189 17.8861 17.5025 16.7871 18.3301 15.341C18.7526 14.6027 18.9925 13.7402 18.8963 12.8303C18.7988 11.9078 18.3698 11.0736 17.6883 10.3921C13.8629 6.56663 6.74571 7.94572 4.40246 13.3887C3.71675 12.8942 3.02263 12.3056 2.32751 11.6105L0 13.938C1.19732 15.1353 2.42124 16.0891 3.64276 16.8295ZM7.3127 14.9859C9.57869 15.8553 11.6088 15.7893 13.0829 15.3265C14.3872 14.917 15.1694 14.237 15.4733 13.706C15.6166 13.4557 15.6339 13.2802 15.6229 13.1763C15.6133 13.085 15.5708 12.9296 15.3608 12.7196C13.2394 10.5982 8.67113 11.2794 7.3127 14.9859Z" fill="#17C3B2"/>
</svg>
