<?xml version="1.0" encoding="utf-8"?>
<!-- Generator: Adobe Illustrator 26.0.1, SVG Export Plug-In . SVG Version: 6.00 Build 0)  -->
<svg version="1.1" id="Layer_1" xmlns="http://www.w3.org/2000/svg" xmlns:xlink="http://www.w3.org/1999/xlink" x="0px" y="0px"
	 viewBox="0 0 91 45" style="enable-background:new 0 0 91 45;" xml:space="preserve">
<style type="text/css">
	.st0{fill-rule:evenodd;clip-rule:evenodd;fill:#EC0F46;}
	.st1{fill-rule:evenodd;clip-rule:evenodd;fill:#240091;}
</style>
<path class="st0" d="M26.4,12.8C26.4,12.8,26.4,12.8,26.4,12.8C26.4,5.7,20.6,0,13.6,0C6.5,0,0.8,5.7,0.8,12.8c0,0,0,0,0,0H26.4z
	 M26.4,13.1H0.8c0,0.5,0.1,1,0.1,1.5h25.3C26.3,14.1,26.3,13.6,26.4,13.1z M26.1,15.2H1c0.1,0.5,0.2,1,0.4,1.5h24.4
	C25.9,16.1,26,15.7,26.1,15.2z M25.3,17.8H1.8c0.3,0.6,0.6,1.2,0.9,1.8h21.7C24.8,19,25.1,18.4,25.3,17.8z M23.2,21.2H4
	c0.5,0.6,1.1,1.1,1.7,1.6h15.9C22.1,22.3,22.7,21.8,23.2,21.2z M19,24.4H8.1c1.7,0.8,3.5,1.2,5.4,1.2S17.4,25.1,19,24.4z"/>
<path class="st1" d="M40.6,40.5c-4,0-7.2-3.2-7.2-7.2c0-4,3.2-7.2,7.2-7.2s7.2,3.2,7.2,7.2c0,0.2,0,0.5,0,0.7H35.2
	c0.2,1.6,1.6,4.9,5.4,4.9c2.8,0,4.8-2.1,4.9-3.2h1.9C46.3,38.5,43.7,40.5,40.6,40.5z M35.1,32.4c0.5-2.6,2.7-4.6,5.4-4.6
	c2.7,0,5,2,5.4,4.6H35.1z M64.1,40.1h1.7v-6.1l6.8,6.1h2.6L67.3,33l7.4-6.4h-2.6l-6.3,5.4V21.2h-1.7V40.1z M60,26.6h1.8l-8,18.4H52
	l2.4-5.3l-5.4-13.2h1.8l4.5,10.9L60,26.6z M29.4,26.6H32l-7.5,6.5l7.8,7H30L23.2,34v6.1h-1.7V24.8l1.7-1.3v8.2L29.4,26.6z
	 M83.1,40.5c4,0,7.2-3.2,7.2-7.2c0-4-3.2-7.2-7.2-7.2c-4,0-7.2,3.2-7.2,7.2C75.9,37.3,79.1,40.5,83.1,40.5z M83.1,38.8
	c3,0,5.5-2.5,5.5-5.5c0-3-2.5-5.5-5.5-5.5c-3,0-5.5,2.5-5.5,5.5C77.6,36.4,80,38.8,83.1,38.8z"/>
</svg>
