<?xml version="1.0" encoding="utf-8"?>
<!-- Generator: Adobe Illustrator 25.3.1, SVG Export Plug-In . SVG Version: 6.00 Build 0)  -->
<svg version="1.1" id="Layer_1" xmlns="http://www.w3.org/2000/svg" xmlns:xlink="http://www.w3.org/1999/xlink" x="0px" y="0px"
	 viewBox="0 0 28 32" style="enable-background:new 0 0 28 32;" xml:space="preserve">
<path d="M16.7,1.8L16.7,1.8v21.4l7.1-6.7c0.4-0.3,0.8-0.5,1.3-0.5s1,0.2,1.3,0.5l1.1,1c0.4,0.3,0.5,0.8,0.5,1.2
	c0,0.5-0.2,0.9-0.5,1.2L15.3,31.5C15,31.8,14.5,32,14,32s-1-0.2-1.3-0.5L0.4,20C0,19.7,0,19.2,0,18.8c0-0.5,0.2-0.9,0.5-1.2l1.1-1
	c0.4-0.3,0.8-0.5,1.3-0.5s0.9,0.2,1.3,0.5l7.2,6.8V1.8c0-1,0.9-1.8,1.9-1.8h1.6C15.9,0,16.7,0.8,16.7,1.8z"/>
</svg>
