<?xml version="1.0" encoding="utf-8"?>
<!-- Generator: Adobe Illustrator 25.3.1, SVG Export Plug-In . SVG Version: 6.00 Build 0)  -->
<svg version="1.1" id="Layer_1" xmlns="http://www.w3.org/2000/svg" xmlns:xlink="http://www.w3.org/1999/xlink" x="0px" y="0px"
	 viewBox="0 0 32 28" style="enable-background:new 0 0 32 28;" xml:space="preserve">
<path d="M30.1,16.7L30.1,16.7H8.8l6.7,7.1c0.3,0.4,0.5,0.8,0.5,1.3s-0.2,1-0.5,1.3l-1,1.1c-0.3,0.4-0.8,0.5-1.2,0.5
	c-0.5,0-0.9-0.2-1.2-0.5L0.4,15.3C0.2,15-0.1,14.5-0.1,14s0.2-1,0.5-1.3L11.9,0.5C12.2,0.1,12.7,0,13.2,0c0.5,0,0.9,0.2,1.2,0.5
	l1,1.1c0.3,0.4,0.5,0.8,0.5,1.3s-0.2,0.9-0.5,1.3l-6.8,7.2h21.6c1,0,1.8,0.9,1.8,1.9v1.6C31.9,15.9,31.1,16.7,30.1,16.7z"/>
</svg>
