<?xml version="1.0" encoding="utf-8"?>
<!-- Generator: Adobe Illustrator 25.3.1, SVG Export Plug-In . SVG Version: 6.00 Build 0)  -->
<svg version="1.1" id="Layer_1" xmlns="http://www.w3.org/2000/svg" xmlns:xlink="http://www.w3.org/1999/xlink" x="0px" y="0px"
	 viewBox="0 0 32 28" style="enable-background:new 0 0 32 28;" xml:space="preserve">
<path d="M1.7,11.3L1.7,11.3h21.4l-6.7-7.1c-0.3-0.4-0.5-0.8-0.5-1.3s0.2-1,0.5-1.3l1-1.1C17.7,0.1,18.2,0,18.6,0
	c0.5,0,0.9,0.2,1.2,0.5l11.6,12.2c0.3,0.3,0.5,0.8,0.5,1.3s-0.2,1-0.5,1.3L19.9,27.5c-0.3,0.4-0.8,0.5-1.2,0.5
	c-0.5,0-0.9-0.2-1.2-0.5l-1-1.1C16.2,26,16,25.6,16,25.1s0.2-0.9,0.5-1.3l6.8-7.2H1.7c-1,0-1.8-0.9-1.8-1.9v-1.6
	C-0.1,12.1,0.7,11.3,1.7,11.3z"/>
</svg>
