<svg width="9" height="10" viewBox="0 0 9 10" fill="none" xmlns="http://www.w3.org/2000/svg">
<path d="M4.07804 9.26827L4.08133 9.28232L4.08133 3.25993L2.05077 5.15315C1.95163 5.24585 1.81734 5.29671 1.67639 5.29671C1.53544 5.29671 1.40208 5.24585 1.30271 5.15315L0.987293 4.85856C0.888158 4.76593 0.833343 4.64249 0.833343 4.51085C0.833343 4.37915 0.887766 4.25563 0.986902 4.163L4.45971 0.91766C4.55923 0.82466 4.6918 0.773806 4.83283 0.774172C4.97465 0.773806 5.1073 0.82466 5.20667 0.91766L8.67978 4.163C8.77884 4.25563 8.83334 4.37907 8.83334 4.51085C8.83334 4.64249 8.77876 4.76593 8.67978 4.85856L8.36437 5.15315C8.26539 5.24585 8.13321 5.29671 7.99226 5.29671C7.85138 5.29671 7.72617 5.24585 7.62711 5.15315L5.5852 3.23856L5.5852 9.275C5.5852 9.54624 5.33501 9.77417 5.04489 9.77417L4.59878 9.77417C4.30865 9.77417 4.07804 9.53951 4.07804 9.26827Z" />
</svg>
