<svg width="9" height="10" viewBox="0 0 9 10" fill="none" xmlns="http://www.w3.org/2000/svg">
<path d="M4.92199 1.28007L4.9187 1.26602L4.9187 7.28841L6.94926 5.39519C7.0484 5.30249 7.18269 5.25163 7.32364 5.25163C7.46459 5.25163 7.59795 5.30249 7.69732 5.39519L8.01274 5.68978C8.11187 5.78241 8.16669 5.90585 8.16669 6.03749C8.16669 6.16919 8.11226 6.29271 8.01313 6.38534L4.54033 9.63068C4.4408 9.72368 4.30823 9.77453 4.1672 9.77417C4.02538 9.77453 3.89273 9.72368 3.79336 9.63068L0.320246 6.38534C0.221189 6.29271 0.166687 6.16927 0.166687 6.03749C0.166687 5.90585 0.221267 5.78241 0.320246 5.68978L0.635663 5.39519C0.734642 5.30249 0.866823 5.25163 1.00777 5.25163C1.14865 5.25163 1.27386 5.30249 1.37292 5.39519L3.41483 7.30978L3.41483 1.27334C3.41483 1.0021 3.66502 0.77417 3.95514 0.77417H4.40125C4.69138 0.77417 4.92199 1.00883 4.92199 1.28007Z" />
</svg>
