<svg width="13" height="8" viewBox="0 0 13 8" fill="none" xmlns="http://www.w3.org/2000/svg">
    <path d="M6.93662 5.14774L2.44725 0.690258C2.32394 0.567521 2.15906 0.500001 1.98325 0.500001C1.80735 0.500001 1.64257 0.567521 1.51906 0.690258L1.12589 1.08085C1.00218 1.20339 0.934082 1.3672 0.934082 1.54177C0.934082 1.71633 1.00218 1.87995 1.12589 2.00259L6.47086 7.30993C6.59477 7.43306 6.76033 7.50048 6.93633 7.5C7.11311 7.50048 7.27847 7.43316 7.40247 7.30993L12.7423 2.00753C12.866 1.88489 12.9341 1.72127 12.9341 1.54661C12.9341 1.37205 12.866 1.20843 12.7423 1.08569L12.3491 0.695199C12.0932 0.441102 11.6766 0.441102 11.4208 0.695199L6.93662 5.14774Z" />
</svg>
