<?xml version="1.0" encoding="utf-8"?>
<!-- Generator: Adobe Illustrator 25.3.1, SVG Export Plug-In . SVG Version: 6.00 Build 0)  -->
<svg version="1.1" id="Layer_1" xmlns="http://www.w3.org/2000/svg" xmlns:xlink="http://www.w3.org/1999/xlink" x="0px" y="0px"
	 viewBox="0 0 32 18.5" style="enable-background:new 0 0 32 18.5;" xml:space="preserve">
<path d="M16.1,12.3L4,0.5C3.7,0.1,3.3,0,2.8,0S1.9,0.2,1.6,0.5l-1,1C0.2,1.8,0,2.3,0,2.7c0,0.5,0.2,0.9,0.5,1.2L14.8,18
	c0.3,0.3,0.8,0.5,1.2,0.5c0.5,0,0.9-0.2,1.2-0.5L31.5,4C31.8,3.7,32,3.2,32,2.8c0-0.5-0.2-0.9-0.5-1.2l-1-1c-0.7-0.7-1.8-0.7-2.5,0
	L16.1,12.3z"/>
</svg>
