<svg width="21" height="20" viewBox="0 0 21 20" fill="none" xmlns="http://www.w3.org/2000/svg">
<path fill-rule="evenodd" clip-rule="evenodd" d="M3 2C2.73478 2 2.48043 2.10536 2.29289 2.29289C2.10536 2.48043 2 2.73478 2 3V17C2 17.2652 2.10536 17.5196 2.29289 17.7071C2.48043 17.8946 2.73478 18 3 18H17C17.2652 18 17.5196 17.8946 17.7071 17.7071C17.8946 17.5196 18 17.2652 18 17V10C18 9.44771 18.4477 9 19 9C19.5523 9 20 9.44771 20 10V17C20 17.7957 19.6839 18.5587 19.1213 19.1213C18.5587 19.6839 17.7957 20 17 20H3C2.20435 20 1.44129 19.6839 0.87868 19.1213C0.31607 18.5587 0 17.7957 0 17V3C0 2.20435 0.31607 1.44129 0.87868 0.87868C1.44129 0.31607 2.20435 0 3 0H14C14.5523 0 15 0.447715 15 1C15 1.55228 14.5523 2 14 2H3ZM19.2929 1.29289C19.6834 0.902369 20.3166 0.902369 20.7071 1.29289C21.0976 1.68342 21.0976 2.31658 20.7071 2.70711L10.7071 12.7071C10.3166 13.0976 9.68342 13.0976 9.29289 12.7071L6.29289 9.70711C5.90237 9.31658 5.90237 8.68342 6.29289 8.29289C6.68342 7.90237 7.31658 7.90237 7.70711 8.29289L10 10.5858L19.2929 1.29289Z" fill="#2362FB"  color="#2362FB"/>
</svg>
