<?xml version="1.0" encoding="utf-8"?>
<!-- Generator: Adobe Illustrator 26.0.1, SVG Export Plug-In . SVG Version: 6.00 Build 0)  -->
<svg version="1.1" id="Layer_1" xmlns="http://www.w3.org/2000/svg" xmlns:xlink="http://www.w3.org/1999/xlink" x="0px" y="0px"
	 viewBox="0 0 64 64" style="enable-background:new 0 0 64 64;" xml:space="preserve">
<path d="M32,0C14.4,0,0,14.4,0,32s14.4,32,32,32s32-14.4,32-32S49.6,0,32,0z M48.1,24.8L29.6,43.3c-0.5,0.5-1.3,0.9-2.1,0.9
	c0,0,0,0,0,0c-0.8,0-1.5-0.3-2.1-0.9l-9.6-9.6c-1.1-1.1-1.1-3,0-4.1c1.1-1.1,3-1.1,4.1,0l7.5,7.5L44,20.7c1.1-1.1,3-1.1,4.1,0
	C49.2,21.8,49.2,23.7,48.1,24.8z"/>
</svg>
