<?xml version="1.0" encoding="utf-8"?>
<!-- Generator: Adobe Illustrator 25.3.1, SVG Export Plug-In . SVG Version: 6.00 Build 0)  -->
<svg version="1.1" id="Capa_1" xmlns="http://www.w3.org/2000/svg" xmlns:xlink="http://www.w3.org/1999/xlink" x="0px" y="0px"
	 viewBox="0 0 32 32" style="enable-background:new 0 0 32 32;" xml:space="preserve">
<path d="M31.4,31.4c-0.4,0.4-1,0.6-1.5,0.6c-0.6,0-1.1-0.2-1.5-0.6L16,19.1L3.7,31.4c-0.4,0.4-1,0.6-1.5,0.6s-1.1-0.2-1.5-0.6
	c-0.8-0.8-0.8-2.2,0-3.1L12.9,16L0.6,3.7c-0.8-0.8-0.8-2.2,0-3.1s2.2-0.8,3.1,0L16,12.9L28.3,0.6c0.8-0.8,2.2-0.8,3.1,0
	s0.8,2.2,0,3.1L19.1,16l12.3,12.3C32.2,29.1,32.2,30.5,31.4,31.4z"/>
</svg>
