<?xml version="1.0" encoding="utf-8"?>
<!-- Generator: Adobe Illustrator 25.3.1, SVG Export Plug-In . SVG Version: 6.00 Build 0)  -->
<svg version="1.1" id="Layer_1" xmlns="http://www.w3.org/2000/svg" xmlns:xlink="http://www.w3.org/1999/xlink" x="0px" y="0px"
	 viewBox="0 0 32 26" style="enable-background:new 0 0 32 26;" xml:space="preserve">
<path d="M27.4,14h-2.5c0.3,0.7,0.4,1.4,0.4,2.1v9c0,0.3-0.1,0.6-0.2,0.9h4.1c1.5,0,2.8-1.2,2.8-2.7v-4.9C32,16,29.9,14,27.4,14z
	 M6.7,16.2c0-0.7,0.1-1.5,0.4-2.1H4.6C2.1,14,0,16,0,18.5v4.9C0,24.8,1.2,26,2.8,26h4.1c-0.1-0.3-0.2-0.6-0.2-0.9V16.2z M18.8,11.7
	h-5.7c-2.5,0-4.6,2-4.6,4.4v9C8.6,25.6,9,26,9.5,26h13c0.5,0,0.9-0.4,0.9-0.9v-9C23.4,13.7,21.4,11.7,18.8,11.7z M16,0
	c-3.1,0-5.6,2.4-5.6,5.3c0,2,1.1,3.7,2.8,4.6c0.8,0.4,1.7,0.7,2.7,0.7c1,0,1.9-0.2,2.7-0.7c1.7-0.9,2.8-2.7,2.8-4.6
	C21.6,2.4,19.1,0,16,0z M6.2,5C4,5,2.1,6.7,2.1,8.9s1.9,4,4.2,4c0.6,0,1.1-0.1,1.6-0.3c0.9-0.4,1.6-1,2-1.8c0.3-0.6,0.5-1.2,0.5-1.9
	C10.4,6.7,8.5,5,6.2,5z M25.8,5c-2.3,0-4.2,1.8-4.2,4c0,0.7,0.2,1.3,0.5,1.9c0.4,0.8,1.2,1.4,2,1.8c0.5,0.2,1.1,0.3,1.6,0.3
	c2.3,0,4.2-1.8,4.2-4S28,5,25.8,5z"/>
</svg>
