<svg width="12" height="12" viewBox="0 0 12 12" fill="none" xmlns="http://www.w3.org/2000/svg">
<path d="M10.2679 6.40601H9.33984C9.43444 6.66499 9.48612 6.94448 9.48612 7.23579V10.7432C9.48612 10.8647 9.46498 10.9812 9.42651 11.0897H10.9607C11.5339 11.0897 12.0001 10.6234 12.0001 10.0503V8.13825C12.0001 7.1831 11.223 6.40601 10.2679 6.40601Z" fill="#73839D"/>
<path d="M2.51403 7.23579C2.51403 6.94446 2.56571 6.66499 2.6603 6.40601H1.73227C0.777095 6.40601 0 7.1831 0 8.13827V10.0503C0 10.6234 0.466243 11.0897 1.03936 11.0897H2.57363C2.53517 10.9812 2.51403 10.8647 2.51403 10.7432V7.23579Z" fill="#73839D"/>
<path d="M7.0609 5.50342H4.9393C3.98412 5.50342 3.20703 6.28051 3.20703 7.23569V10.7431C3.20703 10.9344 3.36214 11.0896 3.55348 11.0896H8.44671C8.63806 11.0896 8.79317 10.9345 8.79317 10.7431V7.23569C8.79317 6.28051 8.01607 5.50342 7.0609 5.50342Z" fill="#73839D"/>
<path d="M5.99977 0.9104C4.85105 0.9104 3.9165 1.84495 3.9165 2.99369C3.9165 3.77287 4.34656 4.45338 4.98167 4.81067C5.28291 4.98012 5.6302 5.07696 5.99977 5.07696C6.36933 5.07696 6.71662 4.98012 7.01787 4.81067C7.653 4.45338 8.08303 3.77285 8.08303 2.99369C8.08303 1.84497 7.14848 0.9104 5.99977 0.9104Z" fill="#73839D"/>
<path d="M2.3417 2.85205C1.4826 2.85205 0.783691 3.55096 0.783691 4.41006C0.783691 5.26916 1.4826 5.96807 2.3417 5.96807C2.55962 5.96807 2.76714 5.92293 2.95565 5.84179C3.28157 5.70147 3.55031 5.45308 3.7166 5.14195C3.83331 4.92358 3.89971 4.67446 3.89971 4.41006C3.89971 3.55098 3.20081 2.85205 2.3417 2.85205Z" fill="#73839D"/>
<path d="M9.65811 2.85205C8.79901 2.85205 8.1001 3.55096 8.1001 4.41006C8.1001 4.67448 8.1665 4.9236 8.28322 5.14195C8.44951 5.4531 8.71824 5.70149 9.04416 5.84179C9.23267 5.92293 9.44019 5.96807 9.65811 5.96807C10.5172 5.96807 11.2161 5.26916 11.2161 4.41006C11.2161 3.55096 10.5172 2.85205 9.65811 2.85205Z" fill="#73839D"/>
</svg>
