<?xml version="1.0" encoding="utf-8"?>
<!-- Generator: Adobe Illustrator 25.4.1, SVG Export Plug-In . SVG Version: 6.00 Build 0)  -->
<svg version="1.1" id="Layer_1" xmlns="http://www.w3.org/2000/svg" xmlns:xlink="http://www.w3.org/1999/xlink" x="0px" y="0px"
	 viewBox="0 0 34 34" enable-background="new 0 0 34 34" xml:space="preserve">
<path fill-rule="evenodd" clip-rule="evenodd" d="M17,34c9.4,0,17-7.6,17-17c0-9.4-7.6-17-17-17C7.6,0,0,7.6,0,17
	C0,26.4,7.6,34,17,34z M19.6,9c1.4,0.2,2.8,0.7,4.1,1.3c2.2,3.3,3.3,7,2.9,11.2c-1.7,1.3-3.4,2-5,2.5c-0.4-0.5-0.8-1.1-1.1-1.7
	c0.6-0.2,1.2-0.5,1.7-0.8c-0.1-0.1-0.3-0.2-0.4-0.3c-3.2,1.5-6.7,1.5-10,0c-0.1,0.1-0.3,0.2-0.4,0.3c0.5,0.3,1.1,0.6,1.7,0.8
	c-0.3,0.6-0.7,1.2-1.1,1.7c-1.6-0.5-3.3-1.3-5-2.5c-0.3-3.7,0.3-7.4,2.9-11.2c1.3-0.6,2.6-1,4.1-1.3c0.2,0.3,0.4,0.7,0.5,1.1
	c1.5-0.2,3-0.2,4.5,0C19.2,9.7,19.4,9.3,19.6,9z M11.8,17.2c0,1.1,0.8,2,1.8,2c1,0,1.8-0.9,1.8-2c0-1.1-0.8-2-1.8-2
	S11.8,16.2,11.8,17.2z M18.3,17.2c0,1.1,0.8,2,1.8,2c1,0,1.8-0.9,1.8-2c0-1.1-0.8-2-1.8-2S18.3,16.2,18.3,17.2z"/>
</svg>
