<?xml version="1.0" encoding="utf-8"?>
<!-- Generator: Adobe Illustrator 25.4.1, SVG Export Plug-In . SVG Version: 6.00 Build 0)  -->
<svg version="1.1" id="Layer_1" xmlns="http://www.w3.org/2000/svg" xmlns:xlink="http://www.w3.org/1999/xlink" x="0px" y="0px"
	 viewBox="0 0 30 8" style="enable-background:new 0 0 30 8;" xml:space="preserve">
<path d="M3.9,0c2.2,0,3.9,1.8,3.9,4S6.1,8,3.9,8S0,6.2,0,4S1.8,0,3.9,0z M15,0c2.2,0,3.9,1.8,3.9,4S17.2,8,15,8s-3.9-1.8-3.9-4
	S12.8,0,15,0z M26.1,0C28.2,0,30,1.8,30,4s-1.8,4-3.9,4s-3.9-1.8-3.9-4S23.9,0,26.1,0z"/>
</svg>
