<?xml version="1.0" encoding="utf-8"?>
<!-- Generator: Adobe Illustrator 25.3.1, SVG Export Plug-In . SVG Version: 6.00 Build 0)  -->
<svg version="1.1" id="Layer_1" xmlns="http://www.w3.org/2000/svg" xmlns:xlink="http://www.w3.org/1999/xlink" x="0px" y="0px"
	 viewBox="0 0 32 32" style="enable-background:new 0 0 32 32;" xml:space="preserve">
<path d="M16,22.7c0.4,0,0.8-0.2,1.1-0.5l7.3-7.3l-2.2-2.2l-4.6,4.6V0h-3.1v17.4l-4.6-4.6L7.7,15l7.3,7.3
	C15.2,22.5,15.6,22.7,16,22.7z M16,32c3.2,0,6.3-0.9,8.9-2.7c2.6-1.8,4.7-4.3,5.9-7.2c1.2-2.9,1.5-6.2,0.9-9.3
	c-0.6-3.1-2.2-6-4.5-8.2L25,6.8c1.8,1.8,3.1,4.1,3.6,6.6c0.5,2.5,0.3,5.1-0.7,7.5c-1,2.4-2.6,4.4-4.7,5.8c-2.1,1.4-4.6,2.2-7.2,2.2
	c-2.6,0-5.1-0.8-7.2-2.2c-2.1-1.4-3.8-3.5-4.7-5.8c-1-2.4-1.2-5-0.7-7.5C3.9,10.9,5.1,8.6,7,6.8L4.8,4.6C2.5,6.8,1,9.6,0.3,12.8
	c-0.6,3.1-0.3,6.3,0.9,9.3c1.2,2.9,3.3,5.5,5.9,7.2C9.7,31.1,12.8,32,16,32z"/>
</svg>
