<svg width="22" height="22" viewBox="0 0 22 22" fill="none" xmlns="http://www.w3.org/2000/svg">
<path d="M11.0303 15.6129C11.3126 15.6127 11.5831 15.5003 11.7826 15.3006L16.7926 10.2903L15.2882 8.78581L12.0948 11.9794V0H9.96589V11.9794L6.7725 8.78581L5.26807 10.2903L10.2781 15.3006C10.4776 15.5003 10.7481 15.6127 11.0303 15.6129Z" />
<path d="M11.0071 21.9999C13.1915 21.9986 15.326 21.347 17.1386 20.1279C18.9512 18.9089 20.3599 17.1778 21.185 15.1552C22.0102 13.1326 22.2144 10.91 21.7718 8.77089C21.3292 6.63174 20.2597 4.67282 18.6996 3.1438L17.2094 4.66606C18.4677 5.89951 19.3301 7.47976 19.6868 9.20535C20.0435 10.9309 19.8783 12.7237 19.2121 14.3549C18.546 15.9862 17.4092 17.3822 15.9466 18.3648C14.484 19.3474 12.762 19.8722 11 19.8722C9.23802 19.8722 7.51597 19.3474 6.05339 18.3648C4.59081 17.3822 3.45398 15.9862 2.78785 14.3549C2.12172 12.7237 1.95647 10.9309 2.31317 9.20535C2.66986 7.47976 3.53235 5.89951 4.79065 4.66606L3.3004 3.1438C1.73948 4.67367 0.669681 6.63388 0.227487 8.77437C-0.214706 10.9149 -0.00924267 13.1385 0.817664 15.1618C1.64457 17.185 3.05543 18.916 4.87024 20.1339C6.68505 21.3518 8.82153 22.0015 11.0071 21.9999Z" />
</svg>
