<?xml version="1.0" encoding="utf-8"?>
<!-- Generator: Adobe Illustrator 25.4.1, SVG Export Plug-In . SVG Version: 6.00 Build 0)  -->
<svg version="1.1" id="Layer_1" xmlns="http://www.w3.org/2000/svg" xmlns:xlink="http://www.w3.org/1999/xlink" x="0px" y="0px"
	 viewBox="0 0 32 32" style="enable-background:new 0 0 32 32;" xml:space="preserve">
<style type="text/css">
	.st0{fill-rule:evenodd;clip-rule:evenodd;}
</style>
<path class="st0" d="M32,16c0,8.8-7.2,16-16,16S0,24.8,0,16S7.2,0,16,0S32,7.2,32,16z M22.5,19.3c-1.6,1.6-4.2,2.3-6.5,1.8
	c-1.1-0.2-2-0.7-2.6-1.5c-0.4-0.5-0.8-1.2-1-2c2.5,0.8,5,0.7,6.9,0.1c1.8-0.6,3.4-1.7,4.2-3.1c0.4-0.7,0.7-1.6,0.6-2.5
	c-0.1-0.9-0.5-1.7-1.2-2.4C19.1,6,12.2,7.3,9.8,12.7c-0.7-0.5-1.4-1.1-2-1.7l-2.3,2.3c1.2,1.2,2.4,2.1,3.6,2.8c0,0.2,0,0.3,0,0.5
	c0,2.1,0.7,3.9,1.9,5.2c1.2,1.3,2.7,2.1,4.4,2.5c3.2,0.7,7-0.2,9.5-2.6L22.5,19.3z M20.6,12c0.2,0.2,0.2,0.4,0.3,0.4
	c0,0.1,0,0.3-0.1,0.5c-0.3,0.5-1.1,1.2-2.3,1.6c-1.4,0.5-3.4,0.5-5.7-0.3C14,10.6,18.5,9.9,20.6,12z"/>
</svg>
