<?xml version="1.0" encoding="utf-8"?>
<!-- Generator: Adobe Illustrator 25.3.1, SVG Export Plug-In . SVG Version: 6.00 Build 0)  -->
<svg version="1.1" id="Layer_1" xmlns="http://www.w3.org/2000/svg" xmlns:xlink="http://www.w3.org/1999/xlink" x="0px" y="0px"
	 viewBox="0 0 32 32" style="enable-background:new 0 0 32 32;" xml:space="preserve">
<path d="M32,16c0-8.8-7.2-16-16-16S0,7.2,0,16c0,8.8,7.2,16,16,16c0.1,0,0.2,0,0.3,0V19.5h-3.4v-4h3.4v-2.9c0-3.4,2.1-5.3,5.1-5.3
	c1.5,0,2.7,0.1,3.1,0.2V11h-2.1c-1.7,0-2,0.8-2,1.9v2.6h4l-0.5,4h-3.5v11.8C27.1,29.5,32,23.3,32,16z"/>
</svg>
