<svg width="33" height="34" viewBox="0 0 33 34" fill="none" xmlns="http://www.w3.org/2000/svg">
<path d="M33 16.8057C33 7.69436 25.6113 0.305664 16.5 0.305664C7.3887 0.305664 0 7.69436 0 16.8057C0 25.917 7.3887 33.3057 16.5 33.3057C16.5969 33.3057 16.6934 33.3036 16.79 33.3019V20.4573H13.2451V16.326H16.79V13.2859C16.79 9.76013 18.9424 7.84114 22.0875 7.84114C23.5936 7.84114 24.8882 7.95343 25.2656 8.00353V11.6884H23.0969C21.3859 11.6884 21.0545 12.5017 21.0545 13.6948V16.326H25.1458L24.6125 20.4573H21.0545V32.6682C27.9513 30.691 33 24.3371 33 16.8057Z" fill="#73839D"/>
</svg>
