<svg width="21" height="22" viewBox="0 0 21 22" fill="none" xmlns="http://www.w3.org/2000/svg">
<path fill-rule="evenodd" clip-rule="evenodd" d="M2.26861 0.721928C3.42416 0.262285 4.95174 0 6.58832 0C8.22471 0 9.75282 0.261955 10.9086 0.72145C11.4836 0.950056 12.0164 1.24726 12.4218 1.62855C12.8152 1.99848 13.1522 2.51324 13.1744 3.15427C13.1759 3.17673 13.1766 3.1994 13.1766 3.22225L13.1766 7.61889C13.1774 7.63474 13.1778 7.65069 13.1778 7.66672C13.1778 7.68892 13.1774 7.71098 13.1766 7.73289L13.1766 10.2709C15.2459 9.63131 17.5933 10.1262 19.2322 11.7555C21.5893 14.0987 21.5893 17.9018 19.2322 20.245C16.8784 22.585 13.0631 22.585 10.7094 20.245C10.4313 19.9685 10.186 19.6717 9.97348 19.3594C8.98282 19.6279 7.82012 19.7779 6.58832 19.7779C4.95137 19.7779 3.42352 19.5159 2.26788 19.0564C1.69291 18.8278 1.16028 18.5306 0.754803 18.1495C0.347452 17.7666 0.00061202 17.2288 0 16.5565L1.2517e-06 3.22042C0.00122577 2.54843 0.348483 2.01112 0.755683 1.62863C1.16116 1.24777 1.69367 0.950621 2.26861 0.721928ZM2 5.61035V7.61902C2.0005 7.62965 2.00083 7.64033 2.001 7.65104C2.00926 7.67042 2.03802 7.72141 2.12526 7.80344C2.28531 7.95396 2.57093 8.13557 3.00715 8.30903C3.87389 8.65367 5.1399 8.88896 6.58944 8.88896C8.03897 8.88896 9.30499 8.65367 10.1717 8.30903C10.6079 8.13557 10.8936 7.95396 11.0536 7.80344C11.1369 7.7251 11.1669 7.67507 11.1766 7.65385V5.61035C11.0889 5.64963 10.9998 5.68717 10.9096 5.72302C9.75391 6.18256 8.22577 6.44449 6.58832 6.44449C4.95087 6.44449 3.42272 6.18256 2.26705 5.72302C2.17688 5.68717 2.08776 5.64963 2 5.61035ZM11.1685 3.22298C11.1544 3.19764 11.1221 3.15174 11.0517 3.08554C10.8917 2.93505 10.606 2.75343 10.1697 2.57995C9.30272 2.23527 8.03667 2 6.58832 2C5.14014 2 3.87468 2.2355 3.00782 2.58031C2.57155 2.75384 2.28552 2.93559 2.12497 3.08639C2.05563 3.15152 2.023 3.1972 2.00824 3.22312C2.02294 3.24893 2.05537 3.2943 2.12414 3.35897C2.2842 3.50949 2.56981 3.6911 3.00603 3.86456C3.87277 4.2092 5.13878 4.44449 6.58832 4.44449C8.03785 4.44449 9.30386 4.2092 10.1706 3.86456C10.6068 3.6911 10.8924 3.50949 11.0525 3.35897C11.1214 3.29418 11.1538 3.24876 11.1685 3.22298ZM11.1766 10.0553C11.0892 10.0944 11.0005 10.1318 10.9107 10.1675C9.75504 10.627 8.22689 10.889 6.58944 10.889C4.95199 10.889 3.42384 10.627 2.26816 10.1675C2.17762 10.1315 2.08812 10.0938 2 10.0543V12.0636C2.0005 12.0742 2.00083 12.0849 2.001 12.0956C2.00925 12.115 2.03802 12.166 2.12526 12.248C2.28531 12.3985 2.5709 12.5801 3.00705 12.7536C3.87366 13.0982 5.13938 13.3335 6.58832 13.3335C7.85264 13.3335 8.9777 13.1535 9.82025 12.8782C10.0653 12.4784 10.3617 12.1011 10.7094 11.7555C10.8594 11.6063 11.0154 11.4666 11.1766 11.3364V10.0553ZM12.6791 12.7093C12.4821 12.8447 12.2947 12.9996 12.1194 13.1738C10.9018 14.3843 10.6282 16.1774 11.2988 17.6497C11.3274 17.6981 11.3523 17.7495 11.373 17.8038C11.5606 18.1725 11.8094 18.5185 12.1194 18.8266C13.6931 20.3911 16.2485 20.3911 17.8222 18.8266C19.3926 17.2654 19.3926 14.7351 17.8222 13.1738C16.4533 11.8129 14.3415 11.6358 12.7793 12.6425C12.7473 12.6667 12.7139 12.689 12.6791 12.7093ZM9.13404 17.5081C8.93225 16.7313 8.88915 15.9221 9.00473 15.1315C8.25322 15.263 7.43574 15.3335 6.58832 15.3335C4.95139 15.3335 3.42351 15.0716 2.26798 14.612C2.17749 14.576 2.08806 14.5384 2 14.4989V16.5395C2.0084 16.5591 2.03735 16.6102 2.12459 16.6922C2.28486 16.8428 2.57064 17.0245 3.00687 17.1979C3.87365 17.5426 5.13939 17.7779 6.58832 17.7779C7.53604 17.7779 8.40366 17.6759 9.13404 17.5081Z" fill="#2362FB" color="#2362FB"/>
</svg>
