<svg width="33" height="34" viewBox="0 0 33 34" fill="none" xmlns="http://www.w3.org/2000/svg">
<path d="M16.5 0.305664C7.38375 0.305664 0 7.8812 0 17.2244C0 24.7009 4.72725 31.0411 11.2819 33.2765C12.1069 33.4357 12.4094 32.912 12.4094 32.463C12.4094 32.0612 12.3956 30.9966 12.3888 29.5863C7.799 30.6064 6.831 27.3165 6.831 27.3165C6.08025 25.3638 4.99538 24.8415 4.99538 24.8415C3.50075 23.7927 5.11088 23.8142 5.11088 23.8142C6.76775 23.9319 7.63813 25.5575 7.63813 25.5575C9.10938 28.1443 11.5005 27.3968 12.4438 26.965C12.5922 25.8702 13.0171 25.1256 13.4888 24.7023C9.82438 24.2791 5.973 22.8242 5.973 16.342C5.973 14.4955 6.61238 12.9861 7.67113 11.8024C7.4855 11.3748 6.92863 9.65457 7.8155 7.32452C7.8155 7.32452 9.19738 6.87113 12.353 9.05914C13.673 8.68323 15.0755 8.49672 16.478 8.48811C17.8805 8.49672 19.283 8.68323 20.603 9.05914C23.738 6.87113 25.1199 7.32452 25.1199 7.32452C26.0068 9.65457 25.4499 11.3748 25.2849 11.8024C26.3368 12.9861 26.9761 14.4955 26.9761 16.342C26.9761 22.8415 23.1193 24.2719 19.448 24.688C20.0255 25.1959 20.5618 26.2332 20.5618 27.8186C20.5618 30.0827 20.5411 31.902 20.5411 32.4515C20.5411 32.8948 20.8299 33.4243 21.6755 33.255C28.2769 31.0339 33 24.6894 33 17.2244C33 7.8812 25.6121 0.305664 16.5 0.305664V0.305664Z" fill="#73839D"/>
</svg>
