<?xml version="1.0" encoding="utf-8"?>
<!-- Generator: Adobe Illustrator 26.0.1, SVG Export Plug-In . SVG Version: 6.00 Build 0)  -->
<svg version="1.1" id="Layer_1" xmlns="http://www.w3.org/2000/svg" xmlns:xlink="http://www.w3.org/1999/xlink" x="0px" y="0px"
	 viewBox="0 0 38 20" style="enable-background:new 0 0 38 20;" xml:space="preserve">
<style type="text/css">
	.st0{fill-rule:evenodd;clip-rule:evenodd;}
</style>
<path class="st0" d="M35.7,5.1c0.1,0,0.1,0,0.2,0C36.7,5.3,38,6,38,7.2c0,1.4-1.5,2.2-2.2,2.2c-0.2,0-3,0-5.8,0c-0.5,0-1,0-1.6,0
	c0.3,0.4,0.5,0.8,0.5,1.5c0,1.1-0.9,1.7-1.7,1.9c0.3,0.3,0.5,0.8,0.5,1.4c0,1.3-1.2,2.2-3,2.2c-0.1,0-0.2,0-0.3,0
	c0.4,0.3,0.7,0.7,0.7,1.2c0,1.4-1.1,2.3-2.8,2.3h-10c-0.1,0-0.1,0-0.2,0c-0.1,0-3.1-0.6-4.8-1.7H4.3c-2.4,0-4.3-1.7-4.3-3.7v-4
	c0-2,1.9-3.7,4.3-3.7h2.4c0.9-0.9,4.3-4,7.5-4.9c2-0.6,3.6-0.9,4.9-1.1l0,0c1-0.2,1.9-0.3,2.7-0.6c1-0.3,1.9-0.2,2.5,0.4
	c0.7,0.6,1,1.7,0.6,2.4c-0.3,0.6-1.4,1.3-2.5,1.8L35.7,5.1z M23.6,8.3c0,0,11.4-0.1,11.7-0.1c0,0,0,0,0,0c0.1-0.1,0.7-0.3,0.7-0.9
	c0-0.5-0.8-0.8-1-0.9L17.3,5.9c-0.3,0-0.5-0.1-0.6-0.4c-0.1-0.2-0.1-0.5,0.1-0.7c0.4-0.4,1-0.5,1.8-0.6l0,0c0.4,0,0.9-0.1,1.4-0.2
	c1.2-0.3,2.9-1.3,3.2-1.7c0.1-0.1,0-0.7-0.4-1c-0.1-0.1-0.4-0.3-0.9-0.1C21,1.6,20.1,1.8,19,2l0,0c-1.3,0.2-2.8,0.5-4.7,1.1
	c-3.3,1-7,4.8-7.1,4.8C7,8,6.8,8.1,6.6,8.1H3.9C2.3,8.1,1,9.2,1,10.6v4C1,15.9,2.3,17,3.9,17H7c0.2,0,0.3,0.1,0.5,0.1
	c1.2,0.9,3.9,1.5,4.3,1.6h9.9c0.6,0,1.3-0.2,1.3-1.1c0-0.3-1.2-0.7-2.3-0.8c-0.4,0-0.6-0.3-0.7-0.6c0-0.3,0.2-0.6,0.6-0.6
	c0.3,0,2.5-0.4,3.4-0.4c0.7,0,1.6-0.2,1.6-1c0-0.7-0.4-0.9-0.6-1l-1.9,0c-0.4,0-0.7-0.2-0.7-0.6c0-0.3,0.2-0.6,0.6-0.7l3-0.4
	c0.3,0,0.9-0.1,0.9-0.8c0-0.7-0.5-1.1-0.7-1.2l-2.8-0.3c-0.4,0-0.7-0.3-0.6-0.7C22.9,8.5,23.2,8.3,23.6,8.3z"/>
</svg>
