<?xml version="1.0" encoding="utf-8"?>
<!-- Generator: Adobe Illustrator 25.4.1, SVG Export Plug-In . SVG Version: 6.00 Build 0)  -->
<svg version="1.1" id="Layer_1" xmlns="http://www.w3.org/2000/svg" xmlns:xlink="http://www.w3.org/1999/xlink" x="0px" y="0px"
	 viewBox="0 0 42 42" style="enable-background:new 0 0 42 42;" xml:space="preserve">
<path d="M42,3.9c0,0,0-0.1-0.1-0.1c0,0,0,0,0,0c0,0,0,0,0,0c0,0,0,0,0,0c0,0-0.1,0-0.1-0.1c0,0-0.1,0-0.1,0h0c0,0,0,0,0,0
	c0,0,0,0,0,0c0,0,0,0,0,0c0,0,0,0,0,0c0,0,0,0,0,0c0,0,0,0,0,0c0,0,0,0,0,0c-0.1,0-0.1,0-0.2,0c0,0-0.1,0-0.1,0.1c0,0,0,0,0,0h0
	c0,0,0,0,0,0L37.4,8l-2,1.9c-0.2,0.2-0.3,0.5-0.3,0.8v6.5c0,0.2,0,0.3-0.2,0.4c-0.1,0.1-0.3,0.2-0.4,0.2c-0.2,0-0.3,0-0.4-0.2
	c-0.1-0.1-0.2-0.3-0.2-0.4v-2.4c0-0.1,0-0.5-0.2-0.7l-0.3-0.3c0,0,0,0,0,0l0,0c0,0,0,0,0,0c0,0,0,0,0,0c0,0,0,0,0,0
	c0,0-0.1-0.1-0.1-0.1c0,0,0,0,0,0c0,0,0,0,0,0c0,0-0.1,0-0.2,0h-0.5c-0.2,0-0.5,0.2-0.7,0.3l-4.4,4.4l-0.8,0.8c0,0-0.1,0.1-0.2,0.1
	c-0.1,0-0.2-0.1-0.2-0.1L26,18.9l4-4c0.1-0.1,0.1-0.2,0.1-0.3c0-0.1,0-0.2-0.1-0.3l-1-1c-0.1-0.1-0.2-0.1-0.3-0.1
	c-0.1,0-0.2,0-0.3,0.1l-4,4l-0.5-0.5l4-4c0.1-0.1,0.1-0.2,0.1-0.3c0-0.1,0-0.2-0.1-0.3l-1-1c-0.1-0.1-0.2-0.1-0.3-0.1
	s-0.2,0-0.3,0.1l-4,4l-0.5-0.5l4-4c0.1-0.1,0.1-0.2,0.1-0.3s0-0.2-0.1-0.3l-1-1c-0.1-0.1-0.2-0.1-0.3-0.1s-0.2,0-0.3,0.1l-4,4L20,13
	c0,0-0.1-0.1-0.1-0.2c0-0.1,0.1-0.2,0.1-0.2L31.9,0.7c0,0,0,0,0,0c0,0,0,0,0,0c0,0,0,0,0,0c0,0,0,0,0,0c0,0,0,0,0,0
	c0,0,0.1-0.1,0.1-0.1c0,0,0,0,0,0c0,0,0,0,0,0c0,0,0-0.1,0-0.2s0-0.1,0-0.2c0,0,0,0,0,0c0,0,0,0,0,0c0,0,0-0.1-0.1-0.1c0,0,0,0,0,0
	c0,0,0,0,0,0c0,0,0,0,0,0c0,0,0,0,0,0h0c0,0,0,0,0,0c0,0,0,0,0,0c0,0,0,0,0,0c0,0-0.1-0.1-0.1-0.1c0,0,0,0,0,0c0,0,0,0,0,0
	c0,0-0.1,0-0.2,0h-2c-0.1,0-0.2,0-0.3,0.1L18.5,11c-0.1,0.1-0.1,0.2-0.2,0.2l-0.8-0.8c0.6,0,1.3-0.4,1.8-0.8C19.7,9.1,20,8.4,20,7.7
	c0-0.7-0.3-1.5-0.8-1.9c-0.5-0.5-1.2-0.8-1.9-0.8h-6.1L6.5,0.1c0,0-0.1-0.1-0.1-0.1c0,0-0.1,0-0.1,0c0,0,0,0,0,0c0,0,0,0,0,0
	c0,0,0,0,0,0h0c0,0,0,0,0,0c0,0,0,0,0,0h-2C4.2,0,4.1,0,4.1,0c0,0,0,0,0,0c0,0,0,0,0,0c0,0-0.1,0-0.1,0.1c0,0,0,0,0,0c0,0,0,0,0,0
	c0,0,0,0,0,0h0c0,0,0,0,0,0c0,0,0,0,0,0c0,0,0,0,0,0c0,0,0,0,0,0c0,0-0.1,0.1-0.1,0.1c0,0,0,0,0,0c0,0,0,0,0,0c0,0,0,0.1,0,0.2
	s0,0.1,0,0.2c0,0,0,0,0,0c0,0,0,0,0,0c0,0,0,0.1,0.1,0.1c0,0,0,0,0,0c0,0,0,0,0,0c0,0,0,0,0,0c0,0,0,0,0,0c0,0,0,0,0,0l6,6
	C10.1,6.8,10.4,7,10.7,7h6.5c0.2,0,0.3,0,0.4,0.2c0.1,0.1,0.2,0.3,0.2,0.4c0,0.2,0,0.3-0.2,0.4c-0.1,0.1-0.3,0.2-0.4,0.2h-2.4
	c-0.1,0-0.5,0-0.7,0.2l-0.3,0.3c0,0,0,0,0,0l0,0c0,0,0,0,0,0c0,0,0,0,0,0c0,0,0,0,0,0c0,0-0.1,0.1-0.1,0.1c0,0,0,0,0,0c0,0,0,0,0,0
	c0,0,0,0.1,0,0.2v0.5c0,0.2,0.2,0.5,0.3,0.7l4.4,4.4l0.8,0.8c0,0,0.1,0.1,0.1,0.2c0,0.1-0.1,0.2-0.1,0.2L18.9,16l-4-4
	c-0.1-0.1-0.2-0.1-0.3-0.1s-0.2,0-0.3,0.1l-1,1c-0.1,0.1-0.1,0.2-0.1,0.3c0,0.1,0,0.2,0.1,0.3l4,4l-0.5,0.5l-4-4
	c-0.1-0.1-0.2-0.1-0.3-0.1c-0.1,0-0.2,0-0.3,0.1l-1,1c-0.1,0.1-0.1,0.2-0.1,0.3s0,0.2,0.1,0.3l4,4l-0.5,0.5l-4-4
	C10.7,16,10.6,16,10.5,16s-0.2,0-0.3,0.1l-1,1c-0.1,0.1-0.1,0.2-0.1,0.3s0,0.2,0.1,0.3l4,4L13,22c0,0-0.1,0.1-0.2,0.1
	c-0.1,0-0.2-0.1-0.2-0.1L0.7,10.1c0,0,0,0,0,0c0,0,0,0,0,0c0,0,0,0,0,0c0,0,0,0,0,0c0,0,0,0,0,0c0,0-0.1-0.1-0.1-0.1c0,0,0,0,0,0
	c0,0,0,0,0,0c0,0-0.1,0-0.2,0s-0.1,0-0.2,0c0,0,0,0,0,0c0,0,0,0,0,0c0,0-0.1,0-0.1,0.1c0,0,0,0,0,0c0,0,0,0,0,0c0,0,0,0,0,0
	c0,0,0,0,0,0v0c0,0,0,0,0,0c0,0,0,0,0,0c0,0,0,0,0,0c0,0-0.1,0.1-0.1,0.1c0,0,0,0,0,0c0,0,0,0,0,0c0,0,0,0.1,0,0.2v2
	c0,0.1,0,0.2,0.1,0.3L11,23.5c0.1,0.1,0.2,0.1,0.2,0.2l-0.8,0.8c0-0.6-0.4-1.3-0.8-1.8C9.1,22.3,8.4,22,7.7,22
	c-0.7,0-1.5,0.3-1.9,0.8c-0.5,0.5-0.8,1.2-0.8,1.9v6.1l-4.8,4.7c0,0-0.1,0.1-0.1,0.1c0,0,0,0.1,0,0.1c0,0,0,0,0,0c0,0,0,0,0,0
	c0,0,0,0,0,0c0,0,0,0,0,0c0,0,0,0,0,0v2c0,0.2,0.1,0.3,0.2,0.4c0,0,0.1,0,0.2,0c0.1,0,0.2,0,0.3-0.1l6-6C6.8,31.9,7,31.6,7,31.3
	v-6.5c0-0.2,0-0.3,0.2-0.4c0.1-0.1,0.3-0.2,0.4-0.2c0.2,0,0.3,0,0.4,0.2c0.1,0.1,0.2,0.3,0.2,0.4v2.4c0,0.1,0,0.5,0.2,0.7l0.3,0.3
	c0.1,0.1,0.3,0.2,0.5,0.2c0.1,0,0.2,0,0.4-0.1c0.2,0,0.4-0.2,0.5-0.3l4.4-4.4l0.8-0.8c0,0,0.1-0.1,0.2-0.1c0.1,0,0.2,0.1,0.2,0.1
	l0.3,0.3l-4,4c-0.1,0.1-0.1,0.2-0.1,0.3s0,0.2,0.1,0.3l1,1c0.1,0.1,0.2,0.1,0.3,0.1s0.2,0,0.3-0.1l4-4l0.5,0.5l-4,4
	c-0.1,0.1-0.1,0.2-0.1,0.3c0,0.1,0,0.2,0.1,0.3l1,1c0.1,0.1,0.2,0.1,0.3,0.1c0.1,0,0.2,0,0.3-0.1l4-4l0.5,0.5l-4,4
	c-0.1,0.1-0.1,0.2-0.1,0.3s0,0.2,0.1,0.3l1,1c0.1,0.1,0.2,0.1,0.3,0.1s0.2,0,0.3-0.1l4-4l0.3,0.3c0,0,0.1,0.1,0.1,0.2
	c0,0.1-0.1,0.2-0.1,0.2L10.1,41.3c0,0-0.1,0.1-0.1,0.1c0,0,0,0.1,0,0.2c0,0.1,0,0.1,0,0.2c0,0,0,0,0,0c0,0,0,0,0,0
	c0,0,0,0.1,0.1,0.1c0,0,0.1,0.1,0.1,0.1c0,0,0,0,0,0c0,0,0,0,0,0c0,0,0.1,0,0.2,0h0h2c0.1,0,0.2,0,0.3-0.1L23.5,31
	c0.1-0.1,0.1-0.2,0.2-0.2l0.8,0.8c-0.6,0-1.3,0.4-1.8,0.8c-0.5,0.5-0.8,1.2-0.8,1.9c0,0.7,0.3,1.5,0.8,1.9c0.5,0.5,1.2,0.8,1.9,0.8
	h6.1l4.7,4.7c0.1,0.1,0.2,0.1,0.3,0.1h2c0.1,0,0.1,0,0.1,0c0,0,0.1,0,0.1-0.1c0,0,0.1-0.1,0.1-0.1s0-0.1,0-0.1c0-0.1,0-0.1,0-0.1
	c0,0,0-0.1-0.1-0.1l-6-5.9c-0.2-0.2-0.5-0.3-0.8-0.3h-6.5c-0.2,0-0.3,0-0.4-0.2c-0.1-0.1-0.2-0.3-0.2-0.4c0-0.2,0-0.3,0.2-0.4
	c0.1-0.1,0.3-0.2,0.4-0.2h2.4c0.1,0,0.5,0,0.7-0.2l0.3-0.3c0.1-0.1,0.2-0.3,0.2-0.5c0-0.1,0-0.2-0.1-0.4c0-0.2-0.2-0.4-0.3-0.5
	l-4.4-4.4l-0.8-0.8c0,0-0.1-0.1-0.1-0.2c0-0.1,0.1-0.2,0.1-0.2l0.3-0.3l4,4c0.1,0.1,0.2,0.1,0.3,0.1s0.2,0,0.3-0.1l1-1
	c0.1-0.1,0.1-0.2,0.1-0.3s0-0.2-0.1-0.3l-4-4l0.5-0.5l4,4c0.1,0.1,0.2,0.1,0.3,0.1c0.1,0,0.2,0,0.3-0.1l1-1c0.1-0.1,0.1-0.2,0.1-0.3
	c0-0.1,0-0.2-0.1-0.3l-4-4l0.5-0.5l4,4c0.1,0.1,0.2,0.1,0.3,0.1s0.2,0,0.3-0.1l1-1c0.1-0.1,0.1-0.2,0.1-0.3s0-0.2-0.1-0.3l-4-4
	l0.3-0.3c0,0,0.1,0,0.1,0c0,0,0.1,0,0.1,0c0,0,0,0,0,0c0,0,0,0,0,0c0,0,0.1,0,0.1,0.1c0,0,0.1,0.1,0.1,0.1L41.3,31c0,0,0,0,0,0
	c0,0,0,0,0,0c0,0,0,0,0,0c0,0,0,0,0,0c0,0,0,0,0,0c0,0,0,0,0,0l0,0c0,0,0,0,0,0c0,0,0,0,0,0c0,0,0,0,0,0c0,0,0,0,0,0c0,0,0,0,0,0
	c0,0,0,0,0,0c0,0,0,0,0,0c0,0,0,0,0,0c0,0,0,0,0,0c0,0,0,0,0,0c0,0,0,0,0,0c0,0,0.1,0,0.1,0.1c0,0,0.1,0,0.1,0c0,0,0,0,0,0
	c0,0,0,0,0,0c0,0,0,0,0,0h0c0,0,0,0,0,0c0,0,0,0,0,0c0,0,0,0,0,0c0,0,0,0,0,0c0.1,0,0.1,0,0.2,0c0,0,0.1-0.1,0.1-0.1c0,0,0,0,0,0
	c0,0,0,0,0,0c0,0,0,0,0,0c0,0,0,0,0,0c0,0,0,0,0,0c0,0,0,0,0,0c0,0,0,0,0,0c0,0,0,0,0,0v0c0,0,0,0,0,0c0,0,0,0,0,0c0,0,0,0,0,0
	c0,0,0,0,0,0c0,0,0,0,0,0c0,0,0,0,0,0c0,0,0,0,0,0c0,0,0-0.1,0.1-0.1c0,0,0,0,0,0c0,0,0,0,0,0c0,0,0-0.1,0-0.1c0,0,0,0,0,0v-1.9
	c0-0.1,0-0.2-0.1-0.3L31,18.5c-0.1-0.1-0.1-0.1-0.2-0.2l0.8-0.8c0,0.6,0.4,1.3,0.8,1.8c0.7,0.5,1.4,0.8,2,0.8c0.7,0,1.5-0.3,1.9-0.8
	c0.5-0.5,0.8-1.2,0.8-1.9v-6.1l1.7-1.7l3-3.1c0,0,0,0,0,0c0,0,0,0,0,0c0,0,0,0,0,0c0,0,0,0,0,0c0,0,0,0,0,0c0,0,0,0,0,0l0,0
	c0,0,0.1-0.1,0.1-0.1c0,0,0,0,0,0c0,0,0-0.1,0-0.1v0c0,0,0,0,0,0c0,0,0,0,0,0c0,0,0,0,0,0c0,0,0,0,0,0V4c0,0,0,0,0,0
	C42,4,42,3.9,42,3.9z M25,21l-3.8,3.8c-0.1,0.1-0.1,0.2-0.2,0.2l-3.8-3.8c-0.1-0.1-0.2-0.1-0.2-0.2l3.8-3.8c0.1-0.1,0.1-0.2,0.2-0.2
	l3.8,3.8C24.8,20.9,24.9,20.9,25,21z"/>
</svg>
