<?xml version="1.0" encoding="utf-8"?>
<!-- Generator: Adobe Illustrator 26.5.0, SVG Export Plug-In . SVG Version: 6.00 Build 0)  -->
<svg version="1.1" id="Layer_1" xmlns="http://www.w3.org/2000/svg" xmlns:xlink="http://www.w3.org/1999/xlink" x="0px" y="0px"
	 viewBox="0 0 393 367" style="enable-background:new 0 0 393 367;" xml:space="preserve">
<style type="text/css">
	.st0{fill:#1D2939;}
</style>
<path class="st0" d="M392.4,170.3c0,107.9-87.8,195.7-195.7,195.7S1,278.2,1,170.3c0-31.3,7.6-62.5,22-90.1
	C36.8,53.5,57,30,81.3,12.2c27.1-19.8,65.2-13.8,84.9,13.2c19.8,27.1,13.8,65.2-13.2,84.9c-1.1,0.8-2.2,1.7-3.3,2.5c0,0,0,0,0,0
	c-15.7,12.8-25.3,31.2-27,51.1c0,0.1,0,0.3,0,0.4c0,0.5-0.1,1.1-0.1,1.6c0,0.5-0.1,1.1-0.1,1.6c0,0.2,0,0.3,0,0.5c0,0.7,0,1.5,0,2.2
	c0,40.9,33.3,74.1,74.1,74.1c11.5,0,22.4-2.6,32.1-7.3c24.8-12,42-37.4,42-66.8c0-22.3-9.9-43.2-27.2-57.4c0,0,0,0,0,0
	c-1-0.9-2.1-1.7-3.2-2.5c-2-1.5-3.4-3.5-4.2-5.7c-3.2-4.9-5.2-10.5-5.8-16.5c-1-9.8,1.9-19.3,8.1-26.9c6.2-7.6,15-12.3,24.8-13.3
	c9.7-1,19.3,1.9,26.9,8.1c34.4,28.2,54.1,69.8,54.1,114.2c0,81.3-66.2,147.5-147.5,147.5c-81.3,0-147.5-66.2-147.5-147.5
	c0-44.4,19.7-86,54.1-114.2c5-4.1,12.3-3.3,16.4,1.6c4.1,5,3.3,12.3-1.6,16.4c-29,23.7-45.6,58.8-45.6,96.2
	c0,68.5,55.7,124.2,124.2,124.2c68.5,0,124.2-55.7,124.2-124.2c0-37.4-16.6-72.5-45.6-96.2c-2.8-2.3-6.3-3.3-9.8-3
	c-3.6,0.4-6.8,2.1-9.1,4.9c-2.3,2.8-3.3,6.3-3,9.8c0.4,3.6,2.1,6.8,4.9,9.1c0,0,0.1,0.1,0.1,0.1c0.3,0.2,0.5,0.5,0.8,0.7
	c0.5,0.4,1,0.8,1.5,1.2c0.1,0.1,0.2,0.2,0.4,0.3c19.5,17.2,31.2,41.2,32.8,67c0,0.1,0,0.2,0,0.3c0,0.7,0.1,1.3,0.1,2
	c0,0.3,0,0.6,0,0.9c0,0.4,0,0.8,0,1.1c0,0.6,0,1.1,0,1.7c0,37.8-21.6,70.6-53.1,86.7c-13.3,6.8-28.4,10.7-44.3,10.7
	c-53.7,0-97.4-43.7-97.4-97.4c0-28.2,12.1-54.7,33.2-73.2c0,0,0,0,0.1-0.1c0.6-0.5,1.2-1,1.8-1.5c0.2-0.1,0.3-0.3,0.5-0.4
	c0.1-0.1,0.1-0.1,0.2-0.2c0,0,0.1-0.1,0.1-0.1c1.4-1.1,2.7-2.2,4.2-3.2c16.7-12.2,20.4-35.7,8.2-52.4c-12.2-16.7-35.7-20.4-52.4-8.2
	C73.6,46.7,55.8,67.4,43.6,90.9c-12.8,24.7-19.3,51.4-19.3,79.4c0,95.1,77.4,172.4,172.4,172.4c95.1,0,172.4-77.4,172.4-172.4
	c0-28-6.5-54.7-19.3-79.4c-12.2-23.5-30-44.3-51.5-59.9c-16.7-12.2-40.2-8.5-52.4,8.2c-3.8,5.2-11.1,6.3-16.3,2.5
	c-5.2-3.8-6.3-11.1-2.5-16.3c19.8-27.1,57.9-33,84.9-13.2c24.3,17.8,44.5,41.3,58.4,68C384.8,107.8,392.4,139,392.4,170.3z"/>
</svg>
