<svg width="46" height="46" xmlns="http://www.w3.org/2000/svg"><path d="M41.122 8.175a23.573 23.573 0 00-12.17-8.14c-.384-.095-.671 0-.863.288l-.862 1.245c-.192.287-.192.67 0 .862 1.246 2.107.862 4.788-.863 6.416-.191.191-.287.478-.287.766l.287 1.436c.096.287.288.575.575.67 4.504 1.628 7.57 6.033 7.57 10.917 0 6.32-5.078 11.49-11.211 11.49-6.133.097-11.212-4.883-11.5-11.011-.191-5.076 2.875-9.672 7.571-11.396.288-.095.48-.383.575-.67l.287-1.436c.096-.288 0-.575-.287-.766-1.82-1.628-2.204-4.31-.863-6.416.192-.287.192-.67 0-.862L18.22.323c-.277-.415-1.059-.312-1.15-.287C5.953 3.1-1.33 14.016.203 25.699 1.737 37.286 11.415 46 23.01 46c8.817 0 16.866-5.075 20.7-13.119 3.832-8.044 2.778-17.62-2.588-24.706zm1.82 14.46c0 8.905-5.653 16.758-13.99 19.343-8.337 2.586-17.345-.574-22.328-7.852-4.983-7.278-4.696-17.045.67-24.035 2.109-2.682 4.696-4.693 7.763-6.033-.288 1.915.191 3.926 1.245 5.65-4.79 2.49-7.762 7.469-7.762 13.023 0 8.043 6.42 14.65 14.375 14.65 7.953 0 14.374-6.607 14.374-14.65a14.76 14.76 0 00-7.762-13.023 8.272 8.272 0 001.245-5.65 20.071 20.071 0 017.763 6.033c2.97 3.543 4.408 8.043 4.408 12.544z"/></svg>