<svg width="17" height="16" viewBox="0 0 17 16" fill="none" xmlns="http://www.w3.org/2000/svg">
<path d="M8.5 0C4.08179 0 0.5 3.58179 0.5 8C0.5 12.4188 4.0821 16 8.50032 16C12.9188 16 16.5 12.4188 16.5 8C16.5 3.58179 12.9188 0 8.5 0ZM8.83836 3.16452C9.41912 3.16452 9.88973 3.63545 9.88973 4.21621C9.88973 4.79697 9.41912 5.26789 8.83836 5.26789C8.2576 5.26789 7.78667 4.79697 7.78667 4.21621C7.78667 3.63545 8.2576 3.16452 8.83836 3.16452ZM9.78115 12.4693C9.78115 12.4693 8.95262 13.1641 7.90882 12.6401C7.67715 12.5243 7.48146 12.3232 7.35647 12.1019C7.00201 11.4751 7.13837 10.8025 7.13837 10.8025L7.24252 9.97775L7.51302 7.82703L6.77634 7.84313C6.43135 7.85102 6.14665 7.57737 6.13908 7.2327C6.13308 6.96504 6.29878 6.73274 6.53425 6.639L8.42204 5.89568C8.8715 5.71862 9.37903 5.93956 9.55579 6.38902C9.62333 6.55977 9.63312 6.73779 9.59461 6.90381L9.56968 7.01586L8.83141 10.2577L8.64708 11.0683C8.61994 11.1904 8.61584 11.2182 8.60795 11.2823C8.58806 11.6471 9.10696 11.3735 9.10696 11.3735C9.41849 11.2015 9.8105 11.3154 9.98158 11.6269C10.1429 11.9195 10.0494 12.2838 9.78115 12.4693Z" />
</svg>
