<?xml version="1.0" encoding="utf-8"?>
<!-- Generator: Adobe Illustrator 25.3.1, SVG Export Plug-In . SVG Version: 6.00 Build 0)  -->
<svg version="1.1" id="Layer_1" xmlns="http://www.w3.org/2000/svg" xmlns:xlink="http://www.w3.org/1999/xlink" x="0px" y="0px"
	 viewBox="0 0 32 32" style="enable-background:new 0 0 32 32;" xml:space="preserve">
<path d="M16,0C7.2,0,0,7.2,0,16c0,8.8,7.2,16,16,16c8.8,0,16-7.2,16-16C32,7.2,24.8,0,16,0z M16.7,6.3c1.2,0,2.1,0.9,2.1,2.1
	s-0.9,2.1-2.1,2.1s-2.1-0.9-2.1-2.1S15.5,6.3,16.7,6.3z M18.6,24.9c0,0-1.7,1.4-3.7,0.3c-0.5-0.2-0.9-0.6-1.1-1.1
	c-0.7-1.3-0.4-2.6-0.4-2.6l0.2-1.6l0.5-4.3l-1.5,0c-0.7,0-1.3-0.5-1.3-1.2c0-0.5,0.3-1,0.8-1.2l3.8-1.5c0.9-0.4,1.9,0.1,2.3,1
	c0.1,0.3,0.2,0.7,0.1,1l0,0.2l-1.5,6.5l-0.4,1.6c-0.1,0.2-0.1,0.3-0.1,0.4c0,0.7,1,0.2,1,0.2c0.6-0.3,1.4-0.1,1.7,0.5
	C19.3,23.8,19.1,24.6,18.6,24.9z"/>
</svg>
