<?xml version="1.0" encoding="utf-8"?>
<!-- Generator: Adobe Illustrator 25.4.1, SVG Export Plug-In . SVG Version: 6.00 Build 0)  -->
<svg version="1.1" id="Layer_1" xmlns="http://www.w3.org/2000/svg" xmlns:xlink="http://www.w3.org/1999/xlink" x="0px" y="0px"
	 viewBox="0 0 34 34" enable-background="new 0 0 34 34" xml:space="preserve">
<path fill-rule="evenodd" clip-rule="evenodd" d="M17,34c9.4,0,17-7.6,17-17c0-9.4-7.6-17-17-17C7.6,0,0,7.6,0,17
	C0,26.4,7.6,34,17,34z M13.2,7.8c1,0,1.3-0.1,3.8-0.1h0c2.5,0,2.8,0,3.8,0.1c1,0,1.7,0.2,2.3,0.4c0.6,0.2,1.1,0.6,1.6,1.1
	c0.5,0.5,0.8,1,1.1,1.6c0.2,0.6,0.4,1.3,0.4,2.3c0,1,0.1,1.3,0.1,3.8c0,2.5,0,2.8-0.1,3.8c0,1-0.2,1.7-0.4,2.3
	c-0.2,0.6-0.6,1.1-1.1,1.6c-0.5,0.5-1,0.8-1.6,1.1c-0.6,0.2-1.3,0.4-2.3,0.4c-1,0-1.3,0.1-3.8,0.1c-2.5,0-2.8,0-3.8-0.1
	c-1,0-1.7-0.2-2.3-0.4c-0.6-0.2-1.1-0.6-1.6-1.1c-0.5-0.5-0.8-1-1.1-1.6c-0.2-0.6-0.4-1.3-0.4-2.3c0-1-0.1-1.3-0.1-3.8
	c0-2.5,0-2.8,0.1-3.8c0-1,0.2-1.7,0.4-2.3c0.2-0.6,0.6-1.1,1.1-1.6c0.5-0.5,1-0.8,1.6-1.1C11.5,8,12.2,7.8,13.2,7.8z M16.7,9.4
	c-0.2,0-0.4,0-0.5,0v0c-1.7,0-2.1,0-2.9,0.1c-0.9,0-1.4,0.2-1.7,0.3c-0.4,0.2-0.7,0.4-1.1,0.7c-0.3,0.3-0.5,0.6-0.7,1.1
	c-0.1,0.3-0.3,0.8-0.3,1.7c0,1-0.1,1.3-0.1,3.7c0,2.5,0,2.8,0.1,3.7c0,0.9,0.2,1.4,0.3,1.7c0.2,0.4,0.4,0.7,0.7,1.1
	c0.3,0.3,0.6,0.5,1.1,0.7c0.3,0.1,0.8,0.3,1.7,0.3c1,0,1.3,0.1,3.7,0.1c2.5,0,2.8,0,3.7-0.1c0.9,0,1.4-0.2,1.7-0.3
	c0.4-0.2,0.7-0.4,1.1-0.7c0.3-0.3,0.5-0.6,0.7-1.1c0.1-0.3,0.3-0.8,0.3-1.7c0-1,0.1-1.3,0.1-3.7c0-2.5,0-2.8-0.1-3.7
	c0-0.9-0.2-1.4-0.3-1.7c-0.2-0.4-0.4-0.7-0.7-1.1c-0.3-0.3-0.6-0.5-1.1-0.7c-0.3-0.1-0.8-0.3-1.7-0.3c-1,0-1.3-0.1-3.7-0.1
	C16.9,9.4,16.8,9.4,16.7,9.4z M21.3,11.1c0.2-0.1,0.4-0.2,0.6-0.2v0c0.6,0,1.1,0.5,1.1,1.1c0,0.2-0.1,0.4-0.2,0.6
	c-0.1,0.2-0.3,0.3-0.5,0.4s-0.4,0.1-0.6,0.1c-0.2,0-0.4-0.1-0.6-0.3c-0.2-0.2-0.3-0.4-0.3-0.6c0-0.2,0-0.4,0.1-0.6
	C21,11.4,21.1,11.2,21.3,11.1z M12.2,17c0-2.6,2.1-4.8,4.8-4.8c2.6,0,4.8,2.1,4.8,4.8s-2.1,4.8-4.8,4.8S12.2,19.6,12.2,17z M20.1,17
	c0-1.7-1.4-3.1-3.1-3.1c-1.7,0-3.1,1.4-3.1,3.1c0,1.7,1.4,3.1,3.1,3.1C18.7,20.1,20.1,18.7,20.1,17z"/>
</svg>
