<svg width="33" height="34" fill="none" xmlns="http://www.w3.org/2000/svg"><path fill-rule="evenodd" clip-rule="evenodd" d="M0 16.806C0 7.694 7.389.306 16.5.306S33 7.694 33 16.806c0 9.111-7.389 16.5-16.5 16.5S0 25.917 0 16.806zm7.686 8.444h4.019V13.16H7.686v12.09zm2.01-13.742H9.67c-1.348 0-2.22-.928-2.22-2.088 0-1.186.898-2.089 2.273-2.089s2.22.903 2.247 2.089c0 1.16-.872 2.088-2.274 2.088zM22.18 25.25h4.018v-6.932c0-3.713-1.982-5.441-4.626-5.441-2.132 0-3.087 1.171-3.621 1.995V13.16h-4.019c.053 1.135 0 12.09 0 12.09h4.019v-6.751c0-.361.026-.723.132-.98.29-.723.952-1.47 2.062-1.47 1.454 0 2.035 1.108 2.035 2.734v6.467z" fill="#73839D"/></svg>