<?xml version="1.0" encoding="utf-8"?>
<!-- Generator: Adobe Illustrator 25.3.1, SVG Export Plug-In . SVG Version: 6.00 Build 0)  -->
<svg version="1.1" id="Layer_1" xmlns="http://www.w3.org/2000/svg" xmlns:xlink="http://www.w3.org/1999/xlink" x="0px" y="0px"
	 viewBox="0 0 32 32" style="enable-background:new 0 0 32 32;" xml:space="preserve">
<style type="text/css">
	.st0{fill-rule:evenodd;clip-rule:evenodd;}
</style>
<path class="st0" d="M0,16C0,7.2,7.2,0,16,0s16,7.2,16,16c0,8.8-7.2,16-16,16S0,24.8,0,16z M7.5,24.2h3.9V12.5H7.5V24.2z M9.4,10.9
	L9.4,10.9c-1.3,0-2.2-0.9-2.2-2c0-1.2,0.9-2,2.2-2s2.2,0.9,2.2,2C11.6,10,10.8,10.9,9.4,10.9z M21.5,24.2h3.9v-6.7
	c0-3.6-1.9-5.3-4.5-5.3c-2.1,0-3,1.1-3.5,1.9v-1.7h-3.9c0.1,1.1,0,11.7,0,11.7h3.9v-6.5c0-0.4,0-0.7,0.1-1c0.3-0.7,0.9-1.4,2-1.4
	c1.4,0,2,1.1,2,2.7V24.2z"/>
</svg>
