<?xml version="1.0" encoding="utf-8"?>
<!-- Generator: Adobe Illustrator 25.3.1, SVG Export Plug-In . SVG Version: 6.00 Build 0)  -->
<svg version="1.1" id="Layer_1" xmlns="http://www.w3.org/2000/svg" xmlns:xlink="http://www.w3.org/1999/xlink" x="0px" y="0px"
	 viewBox="0 0 32 32" style="enable-background:new 0 0 32 32;" xml:space="preserve">
<style type="text/css">
	.st0{fill-rule:evenodd;clip-rule:evenodd;}
</style>
<path class="st0" d="M16,0C7.2,0,0,7.2,0,16s7.2,16,16,16s16-7.2,16-16S24.8,0,16,0z M11.4,24.2H7.5V12.5h3.9V24.2z M9.4,10.9
	c-1.3,0-2.2-0.9-2.2-2c0-1.2,0.9-2,2.2-2c1.3,0,2.2,0.9,2.2,2C11.6,10,10.8,10.9,9.4,10.9z M25.4,24.2h-3.9v-6.3
	c0-1.6-0.6-2.7-2-2.7c-1.1,0-1.7,0.7-2,1.4c-0.1,0.3-0.1,0.6-0.1,1v6.5h-3.9c0,0,0.1-10.6,0-11.7h3.9v1.7c0.5-0.8,1.4-1.9,3.5-1.9
	c2.6,0,4.5,1.7,4.5,5.3V24.2z"/>
</svg>
