<svg width="8" height="12" viewBox="0 0 8 12" fill="none" xmlns="http://www.w3.org/2000/svg">
<path fill-rule="evenodd" clip-rule="evenodd" d="M0 4.53483C0 2.41206 1.79439 0.685059 4 0.685059C6.20559 0.685059 7.99996 2.41206 8 4.53483C8 7.16924 4.42039 11.0367 4.26799 11.2001C4.12509 11.3533 3.87516 11.3535 3.73201 11.2001C3.57961 11.0367 0 7.16924 0 4.53483ZM1.98755 4.53485C1.98755 5.60287 2.89033 6.47177 4.00003 6.47177C5.1097 6.47177 6.01249 5.60289 6.01249 4.53487C6.01249 3.46684 5.1097 2.59794 4.00003 2.59794C2.89035 2.59794 1.98755 3.46682 1.98755 4.53485Z" fill="#73839D"/>
</svg>
