<?xml version="1.0" encoding="utf-8"?>
<!-- Generator: Adobe Illustrator 25.3.1, SVG Export Plug-In . SVG Version: 6.00 Build 0)  -->
<svg version="1.1" id="Layer_1" xmlns="http://www.w3.org/2000/svg" xmlns:xlink="http://www.w3.org/1999/xlink" x="0px" y="0px"
	 viewBox="0 0 24 32" style="enable-background:new 0 0 24 32;" xml:space="preserve">
<style type="text/css">
	.st0{fill-rule:evenodd;clip-rule:evenodd;}
</style>
<path class="st0" d="M0,11.6C0,5.2,5.4,0,12,0c6.6,0,12,5.2,12,11.6c0,7.9-10.7,19.6-11.2,20.1c-0.4,0.5-1.2,0.5-1.6,0
	C10.7,31.2,0,19.5,0,11.6z M6,11.6c0,3.2,2.7,5.8,6,5.8c3.3,0,6-2.6,6-5.8c0-3.2-2.7-5.8-6-5.8C8.7,5.8,6,8.4,6,11.6z"/>
</svg>
