<svg width="23" height="22" viewBox="0 0 23 22" fill="none" xmlns="http://www.w3.org/2000/svg">
<path fill-rule="evenodd" clip-rule="evenodd" d="M4.6951 0.684159C6.27929 -0.473171 8.50173 -0.127135 9.65906 1.45705C10.8164 3.04124 10.4704 5.26368 8.88617 6.42101C7.79966 7.21475 7.10468 8.48741 7.10468 9.92338C7.10468 12.316 9.04427 14.2556 11.4369 14.2556C13.8295 14.2556 15.7691 12.316 15.7691 9.92338C15.7691 8.48741 15.0741 7.21475 13.9876 6.42101C13.6843 6.19943 13.6181 5.77394 13.8396 5.47064C14.0612 5.16734 14.4867 5.10109 14.79 5.32266C16.2128 6.36207 17.1293 8.03584 17.1293 9.92338C17.1293 13.0672 14.5807 15.6158 11.4369 15.6158C8.29305 15.6158 5.74446 13.0672 5.74446 9.92338C5.74446 8.03584 6.661 6.36207 8.08377 5.32266C9.06136 4.60848 9.2749 3.23704 8.56072 2.25945C7.84654 1.28186 6.47509 1.06832 5.4975 1.7825C2.99361 3.61172 1.36022 6.57706 1.36022 9.92338C1.36022 15.4886 5.8717 20 11.4369 20C17.0021 20 21.5136 15.4886 21.5136 9.92338C21.5136 6.57706 19.8802 3.61172 17.3763 1.7825C16.3987 1.06832 15.0272 1.28186 14.3131 2.25945C14.0915 2.56275 13.666 2.629 13.3627 2.40742C13.0594 2.18585 12.9931 1.76035 13.2147 1.45705C14.372 -0.127135 16.5945 -0.473172 18.1787 0.684159C21.0177 2.7582 22.8738 6.12412 22.8738 9.92338C22.8738 16.2398 17.7533 21.3603 11.4369 21.3603C5.12047 21.3603 0 16.2398 0 9.92338C0 6.12412 1.8561 2.7582 4.6951 0.684159Z" fill="#2362FB" color="#2362FB"/>
/>
<path fill-rule="evenodd" clip-rule="evenodd" d="M13.8776 3.55118C14.6278 2.6348 15.9788 2.50011 16.8952 3.25033C18.822 4.82778 20.0579 7.23211 20.0579 9.9235C20.0579 14.6847 16.1981 18.5445 11.4369 18.5445C6.67566 18.5445 2.81592 14.6847 2.81592 9.9235C2.81592 7.23211 4.05175 4.82778 5.97856 3.25033C6.2692 3.01239 6.6977 3.05511 6.93564 3.34575C7.17358 3.63639 7.13086 4.06488 6.84022 4.30282C5.21523 5.63317 4.17614 7.65738 4.17614 9.9235C4.17614 13.9335 7.42689 17.1843 11.4369 17.1843C15.4469 17.1843 18.6977 13.9335 18.6977 9.9235C18.6977 7.65738 17.6586 5.63317 16.0336 4.30282C15.6985 4.02848 15.2044 4.07774 14.9301 4.41284C14.6557 4.74795 14.705 5.242 15.0401 5.51634C16.3169 6.56165 17.1293 8.14738 17.1293 9.92338C17.1293 13.0672 14.5807 15.6158 11.4369 15.6158C8.29305 15.6158 5.74446 13.0672 5.74446 9.92338C5.74446 8.14738 6.55689 6.56165 7.83371 5.51634C8.12434 5.2784 8.55284 5.32112 8.79078 5.61176C9.02872 5.9024 8.986 6.3309 8.69536 6.56884C7.72088 7.36663 7.10468 8.572 7.10468 9.92338C7.10468 12.316 9.04427 14.2556 11.4369 14.2556C13.8295 14.2556 15.7691 12.316 15.7691 9.92338C15.7691 8.572 15.1529 7.36663 14.1784 6.56884C13.262 5.81861 13.1273 4.46756 13.8776 3.55118Z" fill="#2362FB" color="#2362FB"/>
</svg>
