<?xml version="1.0" encoding="utf-8"?>
<!-- Generator: Adobe Illustrator 25.3.1, SVG Export Plug-In . SVG Version: 6.00 Build 0)  -->
<svg version="1.1" id="Layer_1" xmlns="http://www.w3.org/2000/svg" xmlns:xlink="http://www.w3.org/1999/xlink" x="0px" y="0px"
	 viewBox="0 0 32 32" style="enable-background:new 0 0 32 32;" xml:space="preserve">
<path d="M31.5,29.1l-7.9-7.9c2-2.3,3.1-5.3,3.1-8.3c0-7.1-6-12.9-13.3-12.9C6,0,0,5.8,0,12.9s6,12.9,13.4,12.9
	c2.8,0,5.4-0.8,7.7-2.3l7.9,8c0.3,0.3,0.8,0.5,1.3,0.5s0.9-0.2,1.2-0.5C32.1,30.9,32.2,29.8,31.5,29.1z M13.4,3.4
	c5.5,0,9.9,4.3,9.9,9.5c0,5.3-4.4,9.5-9.9,9.5s-9.9-4.3-9.9-9.5S7.9,3.4,13.4,3.4z"/>
</svg>
