<?xml version="1.0" encoding="utf-8"?>
<!-- Generator: Adobe Illustrator 25.4.1, SVG Export Plug-In . SVG Version: 6.00 Build 0)  -->
<svg version="1.1" id="Layer_1" xmlns="http://www.w3.org/2000/svg" xmlns:xlink="http://www.w3.org/1999/xlink" x="0px" y="0px"
	 viewBox="0 0 34 34" enable-background="new 0 0 34 34" xml:space="preserve">
<path fill-rule="evenodd" clip-rule="evenodd" d="M17,34c9.4,0,17-7.6,17-17c0-9.4-7.6-17-17-17C7.6,0,0,7.6,0,17
	C0,26.4,7.6,34,17,34z M18.1,17.5c0,3.6-2.9,6.5-6.5,6.5c-3.6,0-6.5-2.9-6.5-6.5c0-3.6,2.9-6.5,6.5-6.5C15.2,11,18.1,13.9,18.1,17.5
	z M22.5,23.5c1.8,0,3.3-2.7,3.3-6c0-3.3-1.5-6-3.3-6c-1.8,0-3.3,2.7-3.3,6C19.2,20.9,20.6,23.5,22.5,23.5z M29,17.5
	c0,3-0.5,5.5-1.1,5.5c-0.6,0-1.1-2.4-1.1-5.5c0-3,0.5-5.5,1.1-5.5C28.5,12.1,29,14.5,29,17.5z"/>
</svg>
