<?xml version="1.0" encoding="utf-8"?>
<!-- Generator: Adobe Illustrator 25.4.1, SVG Export Plug-In . SVG Version: 6.00 Build 0)  -->
<svg version="1.1" id="Layer_1" xmlns="http://www.w3.org/2000/svg" xmlns:xlink="http://www.w3.org/1999/xlink" x="0px" y="0px"
	 viewBox="0 0 52 42" style="enable-background:new 0 0 52 42;" xml:space="preserve">
<path d="M36,5c-0.8-1.5-1.6-2.7-2.5-3.6c-1.1-1.1-2.1-1.6-3.2-1.4c-2.1,0.8-9.5,14.1-24.6,15.6c-1.9,0.5-3.5,1.7-4.6,3.4
	c-1.1,1.8-1.4,3.8-0.9,5.8s1.7,3.7,3.5,4.8c1.8,1.1,3.9,1.4,5.9,0.9L12,30l4.8,9.8c0.7,1.4,2.1,2.3,3.7,2.3c0.6,0,1.2-0.1,1.8-0.4
	c2-1,2.9-3.4,1.9-5.4l-3.7-7.6c6.9,0.1,13.8,3.3,15.1,3.9c0.9,0.6,1.8,0.9,2.6,0.7c0.9-0.2,1.6-0.9,2.1-2c0.5-1.1,0.7-2.5,0.8-4.3
	c0.1-3.2-0.4-7.3-1.4-11.5C38.8,11.4,37.4,7.7,36,5z M8.8,28.4L8.8,28.4c-1.5,0.4-3,0.1-4.2-0.6c-1.3-0.8-2.2-2-2.5-3.4l0,0
	C1.7,23,2,21.5,2.8,20.2l0,0c0.8-1.2,2-2.1,3.4-2.5l0,0l0.3-0.1l2.6,10.8L8.8,28.4z M13.8,29.3l1.6-0.4c0.8-0.2,1.5-0.3,2.3-0.4
	l1.7,3.5l-3.5,1.6L13.8,29.3z M21.9,37.1L21.9,37.1c0.5,1,0.1,2.1-0.9,2.6s-2.1,0.1-2.6-0.9l0,0l-1.7-3.5l3.5-1.6L21.9,37.1z
	 M14.9,27L11,27.9L8.4,17.1l3.6-0.9l0,0C18.3,14.8,24,9.5,27.2,6c0,0-2.1,10,5.6,23.1C28.4,27.5,21.3,25.4,14.9,27z M29.6,13
	c0.5,0.2,1,0.6,1.4,1.2c0.6,0.7,1,1.7,1.3,2.9s0.3,2.3,0.2,3.2c-0.1,0.7-0.4,1.3-0.7,1.7c-0.5-1.4-0.9-2.9-1.3-4.6l0,0
	C30.1,16,29.8,14.5,29.6,13z M38.7,26.8c-0.1,1.5-0.3,2.5-0.5,3.3c-0.1,0.4-0.3,0.6-0.4,0.8c-0.1,0.2-0.3,0.3-0.4,0.3l0,0
	c0,0,0,0-0.1,0s-0.2,0-0.3-0.1s-0.2-0.2-0.3-0.2l0,0c0,0-0.1-0.1-0.2-0.1c-0.5-0.4-1.2-1.2-1.9-2.4c-0.7-1.1-1.4-2.6-2.1-4.3
	c0.9-0.6,1.5-1.6,1.8-2.8c0.3-1.3,0.3-2.9-0.1-4.5H34h0.2c-0.4-1.6-1.1-3-2-4.1c-0.8-1-1.9-1.6-2.9-1.7c-0.2-1.6-0.2-3.1-0.2-4.4
	c0.1-1.5,0.3-2.5,0.5-3.3c0.1-0.4,0.3-0.6,0.4-0.8c0.1-0.2,0.3-0.3,0.4-0.3l0,0c0,0,0,0,0.1,0s0.3,0.1,0.5,0.2
	c0.2,0.1,0.5,0.4,0.8,0.6c0.6,0.6,1.2,1.5,1.8,2.6c1.3,2.3,2.7,5.8,3.8,10.2C38.3,19.9,38.8,23.8,38.7,26.8z M46.6,2.6L42,6.5
	c-0.2,0.2-0.5,0.3-0.8,0.3c0,0,0,0-0.1,0c-0.3,0-0.6-0.2-0.8-0.4C40.1,6.1,40,5.8,40,5.5s0.2-0.6,0.4-0.8L45,0.8
	c0.2-0.2,0.5-0.3,0.9-0.3c0.3,0,0.6,0.2,0.8,0.4C46.9,1.2,47,1.5,47,1.8S46.8,2.4,46.6,2.6z M52,25.3c-0.2,0.6-0.8,1-1.5,0.8
	l-5.1-1.4h-0.1l0,0l-0.2-0.1l0,0L45,24.5l0,0c-0.3-0.3-0.5-0.8-0.4-1.2c0.2-0.6,0.8-1,1.5-0.8l5.1,1.4c0.3,0.1,0.6,0.3,0.7,0.6
	C52,24.7,52,25,52,25.3z M44.8,15.3c-0.4-0.1-0.8-0.4-0.9-0.9c-0.2-0.6,0.2-1.3,0.9-1.4l5.1-1.3c0.3-0.1,0.6,0,0.9,0.1
	c0.3,0.2,0.5,0.4,0.5,0.7c0.2,0.6-0.2,1.3-0.9,1.4l-5.1,1.3h-0.1l0,0H45l0,0L44.8,15.3L44.8,15.3z"/>
</svg>
