<svg width="17" height="18" viewBox="0 0 17 18" fill="none" xmlns="http://www.w3.org/2000/svg">
<path d="M15.5 0.5H1.5C0.671573 0.5 0 1.17157 0 2C0 2.82843 0.671573 3.5 1.5 3.5H15.5C16.3284 3.5 17 2.82843 17 2C17 1.17157 16.3284 0.5 15.5 0.5Z" fill="black"/>
<path d="M15.5 7.5H1.5C0.671573 7.5 0 8.17157 0 9C0 9.82843 0.671573 10.5 1.5 10.5H15.5C16.3284 10.5 17 9.82843 17 9C17 8.17157 16.3284 7.5 15.5 7.5Z" fill="black"/>
<path d="M1.5 14.5H15.5C16.3284 14.5 17 15.1716 17 16C17 16.8284 16.3284 17.5 15.5 17.5H1.5C0.671573 17.5 0 16.8284 0 16C0 15.1716 0.671573 14.5 1.5 14.5Z" fill="black"/>
</svg>
