<svg width="22" height="22" viewBox="0 0 22 22" fill="none" xmlns="http://www.w3.org/2000/svg">
<path fill-rule="evenodd" clip-rule="evenodd" d="M10.553 0.105573C10.8345 -0.0351909 11.1659 -0.0351909 11.4474 0.105573L21.4474 5.10557C21.7862 5.27496 22.0002 5.62123 22.0002 6C22.0002 6.37877 21.7862 6.72504 21.4474 6.89443L11.4474 11.8944C11.1659 12.0352 10.8345 12.0352 10.553 11.8944L0.553005 6.89443C0.214221 6.72504 0.000219048 6.37877 0.000219048 6C0.000219048 5.62123 0.214221 5.27496 0.553005 5.10557L10.553 0.105573ZM3.23629 6L11.0002 9.88197L18.7642 6L11.0002 2.11803L3.23629 6ZM0.105792 10.5528C0.352781 10.0588 0.953454 9.85858 1.44743 10.1056L11.0002 14.882L20.553 10.1056C21.047 9.85858 21.6477 10.0588 21.8946 10.5528C22.1416 11.0468 21.9414 11.6474 21.4474 11.8944L11.4474 16.8944C11.1659 17.0352 10.8345 17.0352 10.553 16.8944L0.553005 11.8944C0.059027 11.6474 -0.141197 11.0468 0.105792 10.5528ZM0.105792 15.5528C0.352781 15.0588 0.953454 14.8586 1.44743 15.1056L11.0002 19.882L20.553 15.1056C21.047 14.8586 21.6477 15.0588 21.8946 15.5528C22.1416 16.0468 21.9414 16.6474 21.4474 16.8944L11.4474 21.8944C11.1659 22.0352 10.8345 22.0352 10.553 21.8944L0.553005 16.8944C0.059027 16.6474 -0.141197 16.0468 0.105792 15.5528Z" fill="#2362FB" color="#2362FB"/>
</svg>
