<?xml version="1.0" encoding="utf-8"?>
<!-- Generator: Adobe Illustrator 25.3.1, SVG Export Plug-In . SVG Version: 6.00 Build 0)  -->
<svg version="1.1" id="Layer_1" xmlns="http://www.w3.org/2000/svg" xmlns:xlink="http://www.w3.org/1999/xlink" x="0px" y="0px"
	 viewBox="0 0 32 18.5" style="enable-background:new 0 0 32 18.5;" xml:space="preserve">
<path d="M7.5,0.6C6.8,0,5.8-0.1,5.1,0.6L0.5,5.3C-0.2,6-0.2,7,0.5,7.7c0.6,0.7,1.7,0.7,2.4,0l1.8-1.8v10.9c0,0.9,0.7,1.7,1.7,1.7
	c0.9,0,1.7-0.7,1.7-1.7V5.9l1.8,1.8c0.3,0.3,0.8,0.5,1.2,0.5c0.4,0,0.9-0.2,1.2-0.5C13,7,13,6,12.3,5.3L7.5,0.6z M30.3,15.1H17.1
	c-0.9,0-1.7,0.7-1.7,1.7c0,0.9,0.7,1.7,1.7,1.7h13.2c0.9,0,1.7-0.7,1.7-1.7S31.3,15.1,30.3,15.1z M17.1,10.9H27
	c0.9,0,1.7-0.7,1.7-1.7c0-0.9-0.7-1.7-1.7-1.7h-9.9c-0.9,0-1.7,0.7-1.7,1.7C15.4,10.2,16.1,10.9,17.1,10.9z M17.1,3.4h6.5
	c0.9,0,1.7-0.7,1.7-1.7c0-0.9-0.7-1.7-1.7-1.7h-6.5c-0.9,0-1.7,0.7-1.7,1.7C15.4,2.7,16.1,3.4,17.1,3.4z"/>
</svg>
