<svg width="19" height="22" viewBox="0 0 19 22" fill="none" xmlns="http://www.w3.org/2000/svg">
<path fill-rule="evenodd" clip-rule="evenodd" d="M18.4911 0.12889C18.8055 0.306141 19 0.639067 19 1V21C19 21.3609 18.8055 21.6939 18.4911 21.8711C18.1767 22.0484 17.7911 22.0424 17.4823 21.8556L8.27658 16.2857H1C0.447715 16.2857 0 15.838 0 15.2857V6.71429C0 6.162 0.447715 5.71429 1 5.71429H8.27658L17.4823 0.144416C17.7911 -0.0424262 18.1767 -0.0483599 18.4911 0.12889ZM17 2.77383L9.07322 7.56987C8.91708 7.66434 8.73806 7.71429 8.55556 7.71429H2V14.2857H8.55556C8.73806 14.2857 8.91708 14.3357 9.07322 14.4301L17 19.2262V2.77383Z" fill="#2362FB" color="#2362FB"/>
</svg>
