<svg width="22" height="22" viewBox="0 0 22 22" fill="none" xmlns="http://www.w3.org/2000/svg">
<path fill-rule="evenodd" clip-rule="evenodd" d="M18.1347 3.86524C15.6473 1.37856 11.6151 1.37804 9.12929 3.86496C8.73885 4.25558 8.10569 4.25573 7.71507 3.86529C7.32446 3.47486 7.32431 2.84169 7.71475 2.45108C10.9821 -0.817831 16.2808 -0.81613 19.5487 2.45081C22.8172 5.71824 22.817 11.0172 19.5489 14.2856C19.1584 14.6761 18.5252 14.6762 18.1346 14.2857C17.7441 13.8952 17.7441 13.262 18.1346 12.8714C20.6219 10.384 20.6217 6.35142 18.1347 3.86524ZM8.36868 7.26151C4.85143 7.26151 2 10.113 2 13.6308C2 17.1485 4.85143 20 8.36868 20C11.8859 20 14.7374 17.1485 14.7374 13.6308C14.7374 10.113 11.8859 7.26151 8.36868 7.26151ZM0 13.6308C0 9.00862 3.74672 5.26151 8.36868 5.26151C12.9907 5.26151 16.7374 9.00862 16.7374 13.6308C16.7374 18.2529 12.9907 22 8.36868 22C3.74672 22 0 18.2529 0 13.6308Z" fill="#2362FB" color="#2362FB"/>
</svg>
