<?xml version="1.0" encoding="utf-8"?>
<!-- Generator: Adobe Illustrator 25.3.1, SVG Export Plug-In . SVG Version: 6.00 Build 0)  -->
<svg version="1.1" id="Layer_1" xmlns="http://www.w3.org/2000/svg" xmlns:xlink="http://www.w3.org/1999/xlink" x="0px" y="0px"
	 viewBox="0 0 32 30" style="enable-background:new 0 0 32 30;" xml:space="preserve">
<path d="M14.2,1.3c0.6-1.7,3.1-1.7,3.6,0l2.5,7.4c0.3,0.8,1,1.3,1.8,1.3h8c1.8,0,2.6,2.3,1.1,3.4L24.7,18c-0.7,0.5-0.9,1.3-0.7,2.1
	l2.5,7.4c0.6,1.7-1.4,3.2-2.9,2.1L17.1,25c-0.7-0.5-1.6-0.5-2.2,0l-6.5,4.6c-1.5,1.1-3.5-0.4-2.9-2.1l2.5-7.4c0.3-0.8,0-1.6-0.7-2.1
	l-6.5-4.6C-0.7,12.3,0.1,10,1.9,10h8c0.8,0,1.6-0.5,1.8-1.3L14.2,1.3z"/>
</svg>
