<svg width="33" height="34" viewBox="0 0 33 34" fill="none" xmlns="http://www.w3.org/2000/svg">
<path fill-rule="evenodd" clip-rule="evenodd" d="M33 16.8057C33 25.9205 25.6149 33.3057 16.5 33.3057C7.38513 33.3057 0 25.9205 0 16.8057C0 7.69079 7.38513 0.305664 16.5 0.305664C25.6149 0.305664 33 7.69079 33 16.8057ZM23.4581 10.3126L7.54931 16.4465C6.45894 16.8727 6.47819 17.4764 7.36231 17.7569L11.4351 19.0274L20.8827 13.0791C21.3213 12.7876 21.7283 12.9526 21.3956 13.2455L13.7506 20.1521L13.4577 24.35C13.8839 24.35 14.0696 24.1644 14.2896 23.9444L16.2792 22.0276L20.4042 25.0677C21.1563 25.494 21.6939 25.274 21.8947 24.3692L24.6034 11.6079L24.6021 11.6092C24.8413 10.4927 24.1964 10.0459 23.4581 10.3126Z" fill="#73839D"/>
</svg>
