<?xml version="1.0" encoding="utf-8"?>
<!-- Generator: Adobe Illustrator 25.3.1, SVG Export Plug-In . SVG Version: 6.00 Build 0)  -->
<svg version="1.1" id="Layer_1" xmlns="http://www.w3.org/2000/svg" xmlns:xlink="http://www.w3.org/1999/xlink" x="0px" y="0px"
	 viewBox="0 0 32 32" style="enable-background:new 0 0 32 32;" xml:space="preserve">
<style type="text/css">
	.st0{fill-rule:evenodd;clip-rule:evenodd;}
</style>
<path class="st0" d="M32,16c0,8.8-7.2,16-16,16C7.2,32,0,24.8,0,16C0,7.2,7.2,0,16,0C24.8,0,32,7.2,32,16z M22.7,9.7L7.3,15.7
	c-1.1,0.4-1,1-0.2,1.3l3.9,1.2l9.2-5.8c0.4-0.3,0.8-0.1,0.5,0.2l-7.4,6.7L13,23.3c0.4,0,0.6-0.2,0.8-0.4l1.9-1.9l4,2.9
	c0.7,0.4,1.3,0.2,1.4-0.7L23.9,11l0,0C24.1,9.9,23.5,9.4,22.7,9.7z"/>
</svg>
