<svg width="33" height="34" viewBox="0 0 33 34" fill="none" xmlns="http://www.w3.org/2000/svg">
<path fill-rule="evenodd" clip-rule="evenodd" d="M0 16.8057C0 7.69436 7.3887 0.305664 16.5 0.305664C25.6113 0.305664 33 7.69436 33 16.8057C33 25.917 25.6113 33.3057 16.5 33.3057C7.3887 33.3057 0 25.917 0 16.8057ZM24.0441 13.6583C24.0441 13.4944 24.0405 13.3313 24.0332 13.1689C24.7727 12.6344 25.4155 11.9672 25.9223 11.2076C25.2437 11.5092 24.5136 11.7124 23.7475 11.8041C24.5295 11.335 25.1297 10.5933 25.4129 9.70933C24.681 10.1431 23.8708 10.4583 23.008 10.6285C22.3169 9.89237 21.333 9.43188 20.2436 9.43188C18.1521 9.43188 16.456 11.1281 16.456 13.2188C16.456 13.5158 16.4895 13.8049 16.5544 14.0823C13.4068 13.924 10.6157 12.4169 8.74803 10.1253C8.42274 10.6849 8.23517 11.335 8.23517 12.0289C8.23517 13.3429 8.90362 14.5028 9.92052 15.1813C9.29915 15.1622 8.71555 14.9915 8.20521 14.7077C8.20471 14.7236 8.20471 14.7389 8.20471 14.7561C8.20471 16.59 9.51014 18.1215 11.2431 18.4684C10.9248 18.5553 10.59 18.6018 10.2443 18.6018C10.0008 18.6018 9.76342 18.5777 9.53254 18.5334C10.0149 20.0382 11.4128 21.1331 13.0707 21.1639C11.7743 22.1798 10.1413 22.785 8.36685 22.785C8.06145 22.785 7.75983 22.7676 7.4635 22.7326C9.13953 23.8069 11.1298 24.4338 13.2686 24.4338C20.2348 24.4336 24.0441 18.6628 24.0441 13.6583Z" fill="#73839D"/>
</svg>
