<?xml version="1.0" encoding="utf-8"?>
<!-- Generator: Adobe Illustrator 25.3.1, SVG Export Plug-In . SVG Version: 6.00 Build 0)  -->
<svg version="1.1" id="Layer_1" xmlns="http://www.w3.org/2000/svg" xmlns:xlink="http://www.w3.org/1999/xlink" x="0px" y="0px"
	 viewBox="0 0 32 32" style="enable-background:new 0 0 32 32;" xml:space="preserve">
<style type="text/css">
	.st0{fill-rule:evenodd;clip-rule:evenodd;}
</style>
<path class="st0" d="M0,16C0,7.2,7.2,0,16,0s16,7.2,16,16c0,8.8-7.2,16-16,16S0,24.8,0,16z M23.3,12.9c0-0.2,0-0.3,0-0.5
	c0.7-0.5,1.3-1.2,1.8-1.9c-0.7,0.3-1.4,0.5-2.1,0.6c0.8-0.5,1.3-1.2,1.6-2c-0.7,0.4-1.5,0.7-2.3,0.9c-0.7-0.7-1.6-1.2-2.7-1.2
	c-2,0-3.7,1.6-3.7,3.7c0,0.3,0,0.6,0.1,0.8c-3.1-0.2-5.8-1.6-7.6-3.8C8.2,10.1,8,10.7,8,11.4c0,1.3,0.6,2.4,1.6,3.1
	C9,14.4,8.5,14.2,8,14c0,0,0,0,0,0c0,1.8,1.3,3.3,2.9,3.6c-0.3,0.1-0.6,0.1-1,0.1c-0.2,0-0.5,0-0.7-0.1c0.5,1.5,1.8,2.5,3.4,2.6
	c-1.3,1-2.8,1.6-4.6,1.6c-0.3,0-0.6,0-0.9-0.1c1.6,1,3.6,1.6,5.6,1.6C19.6,23.4,23.3,17.8,23.3,12.9z"/>
</svg>
