<?xml version="1.0" encoding="utf-8"?>
<!-- Generator: Adobe Illustrator 25.3.1, SVG Export Plug-In . SVG Version: 6.00 Build 0)  -->
<svg version="1.1" id="Layer_1" xmlns="http://www.w3.org/2000/svg" xmlns:xlink="http://www.w3.org/1999/xlink" x="0px" y="0px"
	 viewBox="0 0 32 32" style="enable-background:new 0 0 32 32;" xml:space="preserve">
<path d="M16,0C7.2,0,0,7.2,0,16s7.2,16,16,16s16-7.2,16-16S24.8,0,16,0z M16,30.5C8,30.5,1.5,24,1.5,16S8,1.5,16,1.5S30.5,8,30.5,16
	S24,30.5,16,30.5z M11.3,24.4v-4.3c0-0.4,0.3-0.7,0.7-0.7c0.4,0,0.7,0.3,0.7,0.7v4.8C12.2,24.8,11.8,24.6,11.3,24.4z M19.3,20.1
	c0-0.4,0.3-0.7,0.7-0.7c0.4,0,0.7,0.3,0.7,0.7v4.2c-0.4,0.2-0.9,0.4-1.4,0.5V20.1z M7.3,21.4v-1.3c0-2.6,2.1-4.7,4.7-4.7h8
	c2.6,0,4.7,2.1,4.7,4.7v1.1c-0.4,0.5-0.9,1-1.4,1.4v-2.5c0-1.8-1.5-3.3-3.3-3.3h-8c-1.8,0-3.3,1.5-3.3,3.3v2.7
	C8.2,22.4,7.7,21.9,7.3,21.4z M16,6.4c-2,0-3.7,1.7-3.7,3.7c0,2,1.7,3.7,3.7,3.7c2,0,3.7-1.7,3.7-3.7C19.7,8,18,6.4,16,6.4z
	 M16,12.4c-1.3,0-2.3-1-2.3-2.3c0,0,0-0.1,0-0.1c0-1.3,1.1-2.3,2.3-2.3c1.3,0,2.3,1.1,2.3,2.3C18.3,11.4,17.3,12.4,16,12.4z"/>
</svg>
