<svg width="43" height="42" fill="none" xmlns="http://www.w3.org/2000/svg"><path d="M10.5 26.388v1.729a14.79 14.79 0 001.821 1.79v-3.519c0-2.377 1.945-4.305 4.332-4.305h10.484c2.386 0 4.331 1.928 4.331 4.305v3.274a14.78 14.78 0 001.821-1.894v-1.38c0-3.366-2.758-6.109-6.152-6.109H16.653c-3.395 0-6.153 2.744-6.153 6.109z" fill="#000"/><path d="M17.563 32.692a14.714 14.714 0 01-1.82-.667v-5.637c0-.496.404-.902.91-.902.505 0 .91.406.91.902v6.304zM28.047 31.893c-.587.275-1.195.513-1.82.71v-6.215c0-.496.404-.902.91-.902.505 0 .91.406.91.902v5.505z" fill="#000"/><path fill-rule="evenodd" clip-rule="evenodd" d="M21.894 8.342c-2.688 0-4.842 2.246-4.842 4.893 0 2.648 2.17 4.808 4.842 4.808 2.672 0 4.842-2.16 4.842-4.807 0-2.652-2.16-4.894-4.842-4.894zm-3.021 4.893c0-1.669 1.37-3.09 3.02-3.09 1.652 0 3.022 1.421 3.022 3.09 0 1.66-1.358 3.004-3.021 3.004-1.664 0-3.021-1.344-3.021-3.004z" fill="#000"/><path fill-rule="evenodd" clip-rule="evenodd" d="M21.5 0C9.902 0 .5 9.402.5 21s9.402 21 21 21 21-9.402 21-21-9.402-21-21-21zm-19 21c0-10.493 8.507-19 19-19s19 8.507 19 19-8.507 19-19 19-19-8.507-19-19z" fill="#000"/></svg>