<?xml version="1.0" encoding="utf-8"?>
<!-- Generator: Adobe Illustrator 25.4.1, SVG Export Plug-In . SVG Version: 6.00 Build 0)  -->
<svg version="1.1" id="Layer_1" xmlns="http://www.w3.org/2000/svg" xmlns:xlink="http://www.w3.org/1999/xlink" x="0px" y="0px"
	 viewBox="0 0 32 42" style="enable-background:new 0 0 32 42;" xml:space="preserve">
<style type="text/css">
	.st0{fill-rule:evenodd;clip-rule:evenodd;}
</style>
<path class="st0" d="M32,24.3c0-0.3,0-0.5-0.1-0.8l0,0l-5.3-13l0,0c0-0.1-0.1-0.1-0.1-0.2l1.8-1.7c1-0.9,1-2.4,0-3.4l-4.8-4.7
	C23,0.2,22.3,0,21.7,0l0,0c-0.6,0-1.2,0.2-1.7,0.7l-9.4,9H6.9l0,0c-0.3,0-0.5,0.1-0.8,0.2c-0.2,0.1-0.4,0.4-0.5,0.6L0.1,23.6l0,0
	C0,23.8,0,24.1,0,24.4c0,0.1,0,0.2,0,0.3l0,0v16l0,0h0.4l0,0H0c0,0.4,0.1,0.7,0.4,0.9C0.6,41.9,1,42,1.3,42l0,0h29.3l0,0v-0.4l0,0
	V42c0.4,0,0.7-0.1,1-0.4c0.3-0.2,0.4-0.6,0.4-0.9h-0.4l0,0H32l0,0C32,40.7,32,24.4,32,24.3z M10.8,12.7L21.6,2.3h0.1h0.1L26.6,7v0.1
	L15.8,17.5l0,0c0,0-0.1,0-0.2,0l-4.8-4.7V12.7z M7.5,12L7.5,12H9c-0.3,0.7-0.2,1.6,0.4,2.2l4.8,4.7l0,0h-2.7c-0.1,0-0.3,0-0.4,0.1
	c-0.1,0-0.2,0.1-0.3,0.2s-0.2,0.2-0.2,0.3c0,0.1-0.1,0.2-0.1,0.4c0,0.1,0,0.2,0.1,0.4c0,0.1,0.1,0.2,0.2,0.3
	c0.1,0.1,0.2,0.2,0.3,0.2s0.2,0.1,0.4,0.1h8.6c0.1,0,0.3,0,0.4-0.1c0.1,0,0.2-0.1,0.3-0.2c0.1-0.1,0.2-0.2,0.2-0.3
	c0-0.1,0.1-0.2,0.1-0.4c0-0.1,0-0.2-0.1-0.4c0-0.1-0.1-0.2-0.2-0.3c-0.1-0.1-0.2-0.2-0.3-0.2c-0.1,0-0.2-0.1-0.4-0.1H17l0,0l0,0
	l7.1-6.8h0.4l4.7,11.7H2.6L7.5,12z M29.7,39.7H2.3V25.6h27.3v14.1H29.7z"/>
</svg>
