<?xml version="1.0" encoding="utf-8"?>
<!-- Generator: Adobe Illustrator 25.3.1, SVG Export Plug-In . SVG Version: 6.00 Build 0)  -->
<svg version="1.1" id="Layer_1" xmlns="http://www.w3.org/2000/svg" xmlns:xlink="http://www.w3.org/1999/xlink" x="0px" y="0px"
	 viewBox="0 0 32 30" style="enable-background:new 0 0 32 30;" xml:space="preserve">
<path d="M31.4,23L20,2.2c-1.8-3-6.2-3-8,0L0.6,23c-1.8,3.2,0.4,7,4,7h22.5C31,30,33.2,26.2,31.4,23z M16,26.4c-1,0-1.8-0.8-1.8-1.8
	s0.8-1.8,1.8-1.8s1.8,0.8,1.8,1.8C17.8,25.4,17,26.4,16,26.4z M17.8,18.8c0,1-0.8,1.8-1.8,1.8s-1.8-0.8-1.8-1.8V9.4
	c0-1,0.8-1.8,1.8-1.8s1.8,0.8,1.8,1.8V18.8z"/>
</svg>
