<?xml version="1.0" encoding="utf-8"?>
<!-- Generator: Adobe Illustrator 25.3.1, SVG Export Plug-In . SVG Version: 6.00 Build 0)  -->
<svg version="1.1" id="Layer_1" xmlns="http://www.w3.org/2000/svg" xmlns:xlink="http://www.w3.org/1999/xlink" x="0px" y="0px"
	 viewBox="0 0 32 32" style="enable-background:new 0 0 32 32;" xml:space="preserve">
<path d="M16,0C7.2,0,0,7.2,0,16c0,8.8,7.2,16,16,16c8.8,0,16-7.2,16-16C32,7.2,24.8,0,16,0z M16,29.3c-3.6,0-6.9-1.5-9.3-3.8v-2.2
	c0-0.6,0.3-1,0.6-1.5C7.6,21.3,8,20.8,8,20c0-1.3-1.1-1.4-1.8-1.5c-0.4,0-0.9-0.1-1.1-0.3C5,18,4.8,17.7,4.6,17.3
	c-0.4-0.7-0.9-1.6-1.9-2.2C3.1,8.2,8.9,2.7,16,2.7c0.4,0,0.7,0,1.1,0.1c-0.1,0-0.2,0.1-0.2,0.1c-0.1,0.1-0.2,0.3-0.2,0.5
	c0,0.2,0.1,0.4,0.2,0.5c0.2,0.2,0.3,0.3,0.3,0.3c0,0-0.1,0.2-0.8,0.6c-1.1,0.6-2.4,1.7-2.6,3c-0.1,0.6,0.1,1.1,0.5,1.4
	c0.1,0.1,0.3,0.2,0.5,0.2c0.9,0,1.6-0.3,2.3-0.7C17.7,8.3,18.4,8,19.3,8C21.9,8,24,8.6,24,9.3c0,0.3-0.1,0.4-0.1,0.4
	C23.6,10,22.4,10,21.5,10c-0.3,0-0.5,0-0.8,0c-0.9,0-1.2-0.1-1.5-0.3c-0.4-0.2-0.8-0.4-1.8-0.4c-1.1,0-3.1,0.2-4.5,1.5
	c-1.1,1.1-1,2.4-0.9,3.2c0,0.2,0,0.4,0,0.6c0,1.3,1.3,2,2.7,2c2,0,3.8,0.4,4,0.7c0,0.7,0.2,1.3,0.4,1.7c0.1,0.3,0.3,0.6,0.3,1
	c0,0.3,0,0.4-0.2,0.5c-0.3,0.3-0.5,0.7-0.5,1.5c0,1.4,1.4,2.9,1.5,3.1c0.1,0.1,0.3,0.2,0.5,0.2c0.1,0,0.1,0,0.2,0
	c0.4-0.1,3.8-1,3.8-3.3c0-0.7,0.2-0.9,0.6-1.2c0.3-0.3,0.8-0.7,0.8-1.5c0-0.5,0.9-1.9,1.8-2.9c0.1-0.1,0.2-0.3,0.2-0.5
	c0-0.2-0.1-0.4-0.3-0.5c-0.5-0.4-1.9-1.7-2.4-3c0.3,0.1,0.6,0.4,0.9,0.6c0.2,0.2,0.5,0.3,0.9,0.3c0.5,0,1.2-0.5,1.8-1
	c0.3,1.1,0.5,2.3,0.5,3.5C29.3,23.4,23.4,29.3,16,29.3z"/>
</svg>
