<?xml version="1.0" encoding="utf-8"?>
<!-- Generator: Adobe Illustrator 25.3.1, SVG Export Plug-In . SVG Version: 6.00 Build 0)  -->
<svg version="1.1" id="Layer_1" xmlns="http://www.w3.org/2000/svg" xmlns:xlink="http://www.w3.org/1999/xlink" x="0px" y="0px"
	 viewBox="0 0 32 22" style="enable-background:new 0 0 32 22;" xml:space="preserve">
<path d="M30.6,2.1c-0.9-1.5-1.8-1.8-3.7-1.9C25,0.1,20.2,0,16,0C11.8,0,7,0.1,5.1,0.2C3.2,0.3,2.2,0.6,1.4,2.1C0.5,3.7,0,6.3,0,11
	c0,0,0,0,0,0c0,0,0,0,0,0v0c0,4.7,0.5,7.3,1.4,8.9c0.9,1.5,1.8,1.8,3.7,2C7,21.9,11.8,22,16,22c4.2,0,9-0.1,10.9-0.2
	c1.9-0.1,2.9-0.4,3.7-2c0.9-1.5,1.4-4.2,1.4-8.9c0,0,0,0,0,0v0C32,6.3,31.5,3.7,30.6,2.1z M12,17V5l10,6L12,17z"/>
</svg>
