<svg width="35" height="24" viewBox="0 0 35 24" fill="none" xmlns="http://www.w3.org/2000/svg">
<path d="M32.8286 2.31273C31.8986 0.628363 30.8893 0.318545 28.8343 0.200727C26.7815 0.0589091 21.6193 0 17.1472 0C12.6664 0 7.50215 0.0589093 5.45144 0.198546C3.40072 0.318546 2.38929 0.626182 1.45072 2.31273C0.492858 3.99491 0 6.89236 0 11.9935C0 11.9978 0 12 0 12C0 12.0044 0 12.0065 0 12.0065V12.0109C0 17.0902 0.492858 20.0095 1.45072 21.6742C2.38929 23.3585 3.39858 23.664 5.44929 23.8058C7.50215 23.928 12.6664 24 17.1472 24C21.6193 24 26.7815 23.928 28.8365 23.808C30.8915 23.6662 31.9008 23.3607 32.8308 21.6764C33.7972 20.0116 34.2858 17.0924 34.2858 12.0131C34.2858 12.0131 34.2858 12.0065 34.2858 12.0022V11.9956C34.2858 6.89236 33.7972 3.99491 32.8286 2.31273ZM12.8572 18.5455V5.45455L23.5715 12L12.8572 18.5455Z" fill="black"/>
</svg>
